<?xml version="1.0" standalone="no"?>
<!DOCTYPE svg PUBLIC "-//W3C//DTD SVG 20010904//EN"
 "http://www.w3.org/TR/2001/REC-SVG-20010904/DTD/svg10.dtd">
<svg version="1.0" xmlns="http://www.w3.org/2000/svg"
 width="512.000000pt" height="512.000000pt" viewBox="0 0 512.000000 512.000000"
 preserveAspectRatio="xMidYMid meet">
<metadata>
Created by potrace 1.14, written by Peter Selinger 2001-2017
</metadata>
<g transform="translate(0.000000,512.000000) scale(0.100000,-0.100000)"
fill="#000000" stroke="none">
<path d="M2445 4350 c-9 -9 -37 -69 -64 -131 -60 -142 -92 -205 -251 -499
-204 -376 -361 -690 -347 -695 7 -2 194 -7 417 -10 223 -3 443 -8 490 -11 196
-10 632 -5 645 8 9 8 -40 147 -75 213 -15 29 -43 93 -60 142 -34 91 -71 165
-184 367 -81 145 -184 358 -239 491 -62 153 -50 144 -194 143 -103 0 -125 -3
-138 -18z m197 -403 c26 -40 83 -146 128 -237 44 -91 112 -228 150 -304 39
-77 68 -141 66 -143 -14 -14 -818 6 -833 20 -1 2 27 52 62 111 36 60 91 156
122 215 31 58 66 120 77 136 12 17 51 80 86 140 70 121 79 135 89 135 3 -1 27
-33 53 -73z"/>
<path d="M937 3872 l-77 -3 -25 -49 c-14 -27 -34 -73 -46 -102 -29 -74 -136
-284 -273 -538 -117 -215 -339 -649 -334 -652 2 0 77 -2 168 -3 207 -3 695
-15 815 -20 229 -10 568 -4 584 11 3 2 -3 20 -12 39 -9 20 -17 43 -17 53 0 9
-20 56 -44 103 -24 48 -51 111 -61 140 -22 68 -75 181 -133 284 -25 44 -60
107 -79 140 -54 99 -169 337 -218 454 -25 60 -51 115 -58 124 -14 17 -74 23
-190 19z m114 -425 c46 -71 97 -170 260 -502 46 -93 85 -173 87 -176 1 -3 -3
-6 -10 -7 -41 -2 -374 -1 -433 2 -38 3 -142 7 -230 11 -88 3 -161 8 -164 10
-2 2 22 45 53 94 30 50 88 150 127 223 39 73 82 147 95 165 13 17 24 34 24 36
0 7 106 185 120 202 7 8 15 15 19 15 3 0 27 -33 52 -73z"/>
<path d="M4125 3872 c-38 -2 -75 -8 -81 -13 -17 -14 -51 -80 -80 -156 -20 -54
-140 -293 -203 -407 -10 -17 -39 -71 -66 -121 -26 -49 -62 -117 -80 -150 -74
-136 -245 -477 -245 -489 0 -10 42 -13 188 -14 180 0 595 -9 772 -17 119 -6
471 -6 495 -1 11 3 40 5 64 5 40 1 43 3 38 24 -12 48 -46 136 -79 202 -20 39
-46 99 -58 135 -28 79 -90 205 -178 360 -78 137 -208 403 -251 515 -17 44 -39
90 -49 102 -19 24 -67 30 -187 25z m113 -431 c29 -44 52 -83 52 -88 0 -4 22
-46 48 -93 26 -47 65 -125 87 -175 22 -49 66 -141 97 -203 32 -62 58 -115 58
-119 0 -10 -828 11 -838 22 -2 2 25 50 60 107 35 56 88 148 117 203 30 55 77
138 106 185 29 47 73 120 99 163 26 42 51 77 55 77 4 0 31 -36 59 -79z"/>
<path d="M1769 1452 c0 -42 -2 -101 -4 -129 -1 -29 0 -53 4 -54 3 -1 125 -2
271 -4 146 -1 371 -6 500 -10 312 -10 797 -12 805 -3 10 9 10 153 1 215 l-8
52 -136 -6 c-184 -9 -556 -8 -782 1 -102 4 -290 9 -417 11 l-233 4 -1 -77z"/>
<path d="M179 969 c-1 -35 -2 -94 -4 -131 -2 -63 0 -68 19 -68 12 -1 192 -3
401 -6 209 -3 412 -7 450 -9 97 -4 706 -8 710 -3 7 7 7 165 0 213 -9 55 -18
65 -49 59 -63 -14 -683 -19 -871 -8 -44 3 -209 7 -367 11 l-288 6 -1 -64z"/>
<path d="M3361 954 c-1 -43 -3 -101 -5 -127 -1 -27 2 -51 7 -54 4 -2 184 -7
400 -9 216 -3 426 -6 467 -9 176 -9 703 -6 710 4 7 12 4 173 -4 206 -2 11 -5
30 -5 42 -1 17 -6 21 -23 18 -82 -14 -694 -21 -878 -9 -36 2 -200 7 -365 10
l-301 7 -3 -79z"/>
</g>
</svg>
