<svg viewBox="0 0 3686 3791" xmlns="http://www.w3.org/2000/svg" xml:space="preserve" fill-rule="evenodd" clip-rule="evenodd" stroke-linejoin="round" stroke-miterlimit="2"><g fill-rule="nonzero"><path d="M823 2520.3h371.5l-142-350H965l-142 350Zm129-86 56-146 55 146H952ZM1209.5 2397.8c0 68 47.5 122.5 136.5 122.5h201.5v-86h-199c-28.5 0-43.5-13.5-43.5-36.5s16-36.5 43.5-36.5h51.5v-86h-54c-89 0-136.5 54.5-136.5 122.5ZM1694 2075.3a48.8 48.8 0 0 0 51 49.5c30.5 0 51-22 51-49.5a48.8 48.8 0 0 0-51-49.5c-30.5 0-51 22-51 49.5Zm-94 445h92.5v-203.5c0-45 19-65.5 52.5-65.5s52.5 20.5 52.5 65.5v36h92.5v-49c0-83-51-141-145-141s-145 58-145 141v216.5ZM1937.5 2260.8c0 51.5 38 94.5 106 94.5H2200v-66h-82.5a64.8 64.8 0 0 0 19-46.5c0-43.5-35.5-76.5-95.5-76.5-66.5 0-103.5 43-103.5 94.5Zm75 0c0-14.5 9.5-28.5 28.5-28.5s28.5 14 28.5 28.5-9 28.5-28.5 28.5-28.5-14-28.5-28.5ZM2235 2401.3c0 71 50.5 126.5 134.5 126.5 77 0 131.5-44.5 131.5-106 0-24-8-45-20.5-60.5H2607v-86h-229.5c-90 0-142.5 55.5-142.5 126Zm87 0c0-27.5 19-45.5 47.5-45.5s47.5 18 47.5 45.5-19 45.5-47.5 45.5-47.5-18-47.5-45.5ZM2647 2313.8c0 59 40 101.5 99 101.5s99-42.5 99-96.5c0-56.5-36.5-90.5-78-90.5-19 0-36 6.5-47.5 17.5v-75.5H2647v143.5Zm70 5c0-16.5 11-29 29-29s29 12.5 29 29-11 29-29 29-29-12.5-29-29ZM0 2804.4c0 48.5 32 87.5 90 92v53h72.5V2831h-59c-19.5 0-28.5-12-28.5-26.5s9.5-26.5 28.5-26.5h59v-66H101c-65 0-101 41-101 92.5ZM215 2922c0 88.5 54 147.5 135.5 147.5 83 0 138-60 138-132.5 0-75-54-127.5-116-127.5-25 0-47.5 8.5-65 24.5v-122H215v210Zm89 16c0-30 18.5-49.5 46.5-49.5S397 2908 397 2938s-18.5 49.5-46.5 49.5S304 2968 304 2938ZM556 3069.4 851 2931v-87.5l-295-139v365Zm87.5-231 113 49.5-113 50v-99.5ZM903.5 3062H1136v-86H996v-264h-92.5v350ZM1181 2943c0 71 50.5 126.4 134.5 126.4 77 0 131.5-44.5 131.5-106 0-24-8-45-20.5-60.5H1553v-86h-229.5c-90 0-142.5 55.5-142.5 126Zm87 0c0-27.6 19-45.6 47.5-45.6s47.5 18 47.5 45.5-19 45.5-47.5 45.5-47.5-18-47.5-45.5ZM1588 2804.4c0 48.5 32 87.5 90 92v53h72.5V2831h-59c-19.5 0-28.5-12-28.5-26.5s9.5-26.5 28.5-26.5h59v-66H1689c-65 0-101 41-101 92.5Zm215 117.5c0 88.5 54 147.5 135.5 147.5 83 0 138-60 138-132.5 0-75-54-127.5-116-127.5-25 0-47.5 8.5-65 24.5v-122H1803v210Zm89 16c0-30 18.5-49.5 46.5-49.5s46.5 19.5 46.5 49.5-18.5 49.5-46.5 49.5-46.5-19.5-46.5-49.5ZM2104 2804.4c0 48.5 32 87.5 90 92v53h72.5V2831h-59c-19.5 0-28.5-12-28.5-26.5s9.5-26.5 28.5-26.5h59v-66H2205c-65 0-101 41-101 92.5ZM2331.5 3062h92.5v-202.6c0-45 20-66.5 55-66.5s55 21.5 55 66.5V3062h92.5v-217.5c0-83-52-140-147.5-140s-147.5 57-147.5 140V3062ZM2686.5 2887c0 106 77 175 188.5 175h60v-87.6h-52.5c-65 0-98.5-34.5-98.5-87.5s33.5-87.5 98.5-87.5h52.5V2712h-60c-111.5 0-188.5 69-188.5 175ZM3012.5 3069.4l295-138.5v-87.5l-295-139v365Zm87.5-231 113 49.5-113 50v-99.5ZM3347.5 2939.4c0 68 47.5 122.5 136.5 122.5h54v-86h-51.5c-27.5 0-43.5-13.5-43.5-36.5s15-36.5 43.5-36.5h199v-86H3484c-89 0-136.5 54.5-136.5 122.5Z"/></g><g transform="translate(886.8) scale(8.33333)"><clipPath id="a"><path d="M0 0h231.2v454.9H0z"/></clipPath><g clip-path="url(#a)"><path d="M123.8 0c6.7 2.6 11.2-.2 13 1.2 5.8 5.6 8.9 17.4 12 25.1 7 17 10.1 20.6 17.5 37.4 5.2 12 24.7 44.7 27 49.3 5.7 11.7 12.4 22.5 15.6 35 2.7 10 8.8 18.6 12.9 27.7 2.2 5 2.7 7.4 4 12.9.3 1.5 1.4 3 2.2 4.4 2 3.5 1.9 6.2-3 6-10.8-.6-22 1.9-32.8 1.5-14.4-.5-28.8-.5-43.2-.9-14.5-.4-29-1-43.5-1.7-11.2-.5-23-.5-34.2-.7-9.7-.2-18.8-.6-28.4-.5-10.9 0-24 .2-34.9 0-6.5 0-8.3 1.3-5-5l25.3-50.3C47.2 104 61.4 81.7 80 44.2c4.7-9.5 9-18.6 12.4-28.7 1.2-3.6 4.9-8.3 6-12a5.2 5.2 0 0 1 3.8-2.7c4.4-.3 8.8.5 13.2.5.3-.7 8.1-.6 8.4-1.3m21.8 162.6v-.2c3.7 0 7.4-.5 11 0 10 0 22.1-.5 22.1-.5-6-10.3-17.2-33-22.8-45.1-7.4-20.5-11.4-21.3-20.7-42.2-1.3-4.9-12-17.2-13.7-21.9-.6-1.5 0 .1-1.4-1-.5-3.2-6.2 7.2-6.7 8-3.6 7-9.1 14.3-12.4 21.5-3.8 8-5.3 6.2-9.3 14.2-6.9 13.7-12.5 22.6-19.5 36.2-3.3 6.4-13.9 20.8-16.7 27.5-.4.7 8-.1 8.8 0 8.3 1.1 24.6 1.3 33 1.8 18.3 1.2 30 .7 48.3 1.7" fill="#ef7d00" fill-rule="nonzero"/><path d="M229.6 422.5c2.6 10 1.4 15.7 1 21.4.3 1.6.8 10.8-.8 10.4-10.8-.5-15.2.9-26 .5-14.3-.5-44-.3-58.4-.6-14.5-.4-29-1-43.4-1.6-11.2-.4-23-.3-34.1-.5-11.2-.2-21.4-.7-32.8-.3-10.2.3-20.3 0-30.5 0-6.3 0-4.2-1-4.6-5l1.3-33.4c1.5.7 58.7.4 59.4.5 8.4 1 24.6 1.2 33 1.7 18.2 1.1 47.5 1.3 48.2 1.3.6 0 22.5-.3 26 .2 56-1 60.6-3 60.6-3l1 8.4Z" fill="#c42c27" fill-rule="nonzero"/></g></g></svg>