<svg viewBox="0 0 3932 3791" xmlns="http://www.w3.org/2000/svg" xml:space="preserve" fill-rule="evenodd" clip-rule="evenodd" stroke-linejoin="round" stroke-miterlimit="2"><g fill-rule="nonzero"><path d="M0 2520.3h92.5v-90h51c90 0 138.5-53 138.5-130s-48.5-130-138.5-130H0v350Zm136-264c31 0 48.5 16.5 48.5 44s-17.5 44-48.5 44H92.5v-88H136ZM309.5 2387.8c0 79.5 55 140 137.5 140s137.5-60.5 137.5-140-54.5-140-137.5-140-137.5 60.5-137.5 140Zm89 0c0-37.5 20-61.5 48.5-61.5s48.5 24 48.5 61.5c0 37-20 61.5-48.5 61.5s-48.5-24.5-48.5-61.5ZM629.5 2410.8c0 77 40.5 117 94 117 34 0 61.5-14 78.5-40.5v33h87.5v-265H802v131.5c0 37.5-19 56.5-46 56.5-22.5 0-39-14.5-39-50.5v-137.5h-87.5v155.5ZM954.5 2520.3h87.5v-96.5c0-55 22.5-77.5 78.5-77.5v-98.5c-36.5 0-63 17.5-78.5 58v-50.5h-87.5v265ZM1275.5 2520.3h87.5v-190h57.5v-75H1363v-.5c0-22.5 11-32.5 34-32.5 9.5 0 19.5 1.5 28.5 3.5v-73c-12-3-26.5-5-44-5-70 0-106 35-106 102v5.5H1243v75h32.5v190ZM1440.5 2447.3c0 45.5 29 80.5 81.5 80.5 28.5 0 54-10.5 71.5-30v22.5h87.5v-155.5c0-77-50-117-121.5-117-41 0-78 11-105.5 23.5l23 70c19-9.5 43.5-17 64.5-17 28.5 0 49.5 12.5 52 42-13-2.5-27.5-4-42-4-74 0-111 34.5-111 85Zm81.5-8c0-13.5 10.5-25 36.5-25 14 0 24.5 1 35 2v3.5c0 25.5-17.5 42.5-44 42.5-19.5 0-27.5-11-27.5-23ZM1733.5 2175.8c0 28.5 21.5 50 53.5 50s54-21.5 54-50-22-50-54-50-53.5 21.5-53.5 50Zm10 344.5h87.5v-265h-87.5v265ZM1896 2520.3h87.5v-96.5c0-55 22.5-77.5 78.5-77.5v-98.5c-36.5 0-63 17.5-78.5 58v-50.5H1896v265ZM2084.5 2387.8c0 78 58.5 140 145 140 35 0 67.5-7 102-22l-25.5-66.5c-21 8-44.5 13-70.5 13-32.5 0-53.5-16-62-40.5H2337c2-9 3-24 3-34 0-72.5-49-130-124-130-81.5 0-131.5 60.5-131.5 140Zm130-70c23 0 37 18 40 46H2172c5-30 20-46 42.5-46ZM2500.5 2520.3h82.5v-25a98.7 98.7 0 0 0 73.5 32.5c67.5 0 110-60.5 110-140s-42-140-110-140c-26.5 0-50 10-68.5 27v-119.5h-87.5v365Zm80-132.5c0-37.5 20-61.5 48.5-61.5s48.5 24 48.5 61.5c0 37-20 61.5-48.5 61.5s-48.5-24.5-48.5-61.5ZM2814 2520.3h87.5v-96.5c0-55 22.5-77.5 78.5-77.5v-98.5c-36.5 0-63 17.5-78.5 58v-50.5H2814v265ZM3010 2175.8c0 28.5 21.5 50 53.5 50s54-21.5 54-50-22-50-54-50-53.5 21.5-53.5 50Zm10 344.5h87.5v-265H3020v265ZM3172.5 2155.3h87.5v365h-87.5zM3325 2155.3h87.5v365H3325zM3460 2387.8c0 78 58.5 140 145 140 35 0 67.5-7 102-22l-25.5-66.5c-21 8-44.5 13-70.5 13-32.5 0-53.5-16-62-40.5h163.5c2-9 3-24 3-34 0-72.5-49-130-124-130-81.5 0-131.5 60.5-131.5 140Zm130-70c23 0 37 18 40 46h-82.5c5-30 20-46 42.5-46ZM3766 2520.3h87.5v-96.5c0-55 22.5-77.5 78.5-77.5v-98.5c-36.5 0-63 17.5-78.5 58v-50.5H3766v265ZM776.5 2697H864v365h-87.5zM914 2989c0 45.5 29 80.5 81.5 80.5 28.5 0 54-10.5 71.5-30v22.5h87.5v-155.5c0-77-50-117-121.5-117-41 0-78 11-105.5 23.5l23 70c19-9.5 43.5-17 64.5-17 28.5 0 49.5 12.5 52 42-13-2.5-27.5-4-42-4-74 0-111 34.5-111 85Zm81.5-8c0-13.5 10.5-25 36.5-25 14 0 24.5 1 35 2v3.5c0 25.5-17.5 42.5-44 42.5-19.5 0-27.5-11-27.5-23ZM1332 3062h87.5v-190h57.5v-75h-57.5v-.5c0-22.5 11-32.5 34-32.5 9.5 0 19.5 1.5 28.5 3.5v-73c-12-3-26.5-5-44-5-70 0-106 35-106 102v5.5h-32.5v75h32.5v190ZM1497 2989c0 45.5 29 80.5 81.5 80.5 28.5 0 54-10.5 71.5-30v22.5h87.5v-155.5c0-77-50-117-121.5-117-41 0-78 11-105.5 23.5l23 70c19-9.5 43.5-17 64.5-17 28.5 0 49.5 12.5 52 42-13-2.5-27.5-4-42-4-74 0-111 34.5-111 85Zm81.5-8c0-13.5 10.5-25 36.5-25 14 0 24.5 1 35 2v3.5c0 25.5-17.5 42.5-44 42.5-19.5 0-27.5-11-27.5-23ZM1800 3062h87.5v-131.5c0-37.5 18-56.5 43.5-56.5 21 0 36.5 14.5 36.5 50.5V3062h87.5v-131.5c0-37.5 18-56.5 43.5-56.5 21 0 36.5 14.5 36.5 50.5V3062h87.5v-155.5c0-77-39.5-117-93-117-32.5 0-62.5 10.5-88.5 48.5a84.4 84.4 0 0 0-79-48.5c-31.5 0-58 14-74.5 40.5v-33H1800v265ZM2275 2717.5c0 28.5 21.5 50 53.5 50s54-21.5 54-50-22-50-54-50-53.5 21.5-53.5 50Zm10 344.5h87.5v-265H2285v265ZM2437.3 2697h87.5v365h-87.5zM2589.8 2697h87.5v365h-87.5zM2725 2929.5c0 78 58.5 140 145 140 35 0 67.5-7 102-22l-25.5-66.5c-21 8-44.5 13-70.5 13-32.5 0-53.5-16-62-40.5h163.5c2-9 3-24 3-34 0-72.5-49-130-124-130-81.5 0-131.5 60.5-131.5 140Zm130-70c23 0 37 18 40 46h-82.5c5-30 20-46 42.5-46ZM3023.5 3017.5c0 28.5 21.5 52 53.5 52s53.5-23.5 53.5-52-21.5-52-53.5-52-53.5 23.5-53.5 52Z"/></g><g transform="translate(986.3) scale(8.33333)"><clipPath id="a"><path d="M0 0h231.2v454.9H0z"/></clipPath><g clip-path="url(#a)"><path d="M123.8 0c6.7 2.6 11.2-.2 13 1.2 5.8 5.6 8.9 17.4 12 25.1 7 17 10.1 20.6 17.5 37.4 5.2 12 24.7 44.7 27 49.3 5.7 11.7 12.4 22.5 15.6 35 2.7 10 8.8 18.6 12.9 27.7 2.2 5 2.7 7.4 4 12.9.3 1.5 1.4 3 2.2 4.4 2 3.5 1.9 6.2-3 6-10.8-.6-22 1.9-32.8 1.5-14.4-.5-28.8-.5-43.2-.9-14.5-.4-29-1-43.5-1.7-11.2-.5-23-.5-34.2-.7-9.7-.2-18.8-.6-28.4-.5-10.9 0-24 .2-34.9 0-6.5 0-8.3 1.3-5-5l25.3-50.3C47.2 104 61.4 81.7 80 44.2c4.7-9.5 9-18.6 12.4-28.7 1.2-3.6 4.9-8.3 6-12a5.2 5.2 0 0 1 3.8-2.7c4.4-.3 8.8.5 13.2.5.3-.7 8.1-.6 8.4-1.3m21.8 162.6v-.2c3.7 0 7.4-.5 11 0 10 0 22.1-.5 22.1-.5-6-10.3-17.2-33-22.8-45.1-7.4-20.5-11.4-21.3-20.7-42.2-1.3-4.9-12-17.2-13.7-21.9-.6-1.5 0 .1-1.4-1-.5-3.2-6.2 7.2-6.7 8-3.6 7-9.1 14.3-12.4 21.5-3.8 8-5.3 6.2-9.3 14.2-6.9 13.7-12.5 22.6-19.5 36.2-3.3 6.4-13.9 20.8-16.7 27.5-.4.7 8-.1 8.8 0 8.3 1.1 24.6 1.3 33 1.8 18.3 1.2 30 .7 48.3 1.7" fill="#ef7d00" fill-rule="nonzero"/><path d="M229.6 422.5c2.6 10 1.4 15.7 1 21.4.3 1.6.8 10.8-.8 10.4-10.8-.5-15.2.9-26 .5-14.3-.5-44-.3-58.4-.6-14.5-.4-29-1-43.4-1.6-11.2-.4-23-.3-34.1-.5-11.2-.2-21.4-.7-32.8-.3-10.2.3-20.3 0-30.5 0-6.3 0-4.2-1-4.6-5l1.3-33.4c1.5.7 58.7.4 59.4.5 8.4 1 24.6 1.2 33 1.7 18.2 1.1 47.5 1.3 48.2 1.3.6 0 22.5-.3 26 .2 56-1 60.6-3 60.6-3l1 8.4Z" fill="#c42c27" fill-rule="nonzero"/></g></g></svg>