<svg viewBox="0 0 3834 3791" xmlns="http://www.w3.org/2000/svg" xml:space="preserve" fill-rule="evenodd" clip-rule="evenodd" stroke-linejoin="round" stroke-miterlimit="2"><g fill-rule="nonzero"><path d="M0 2520.3h92.5v-159.5l65 89H190l65-89v159.5h92.5v-350H285l-111 158-111.5-158H0v350ZM405 2447.3c0 45.5 29 80.5 81.5 80.5 28.5 0 54-10.5 71.5-30v22.5h87.5v-155.5c0-77-50-117-121.5-117-41 0-78 11-105.5 23.5l23 70c19-9.5 43.5-17 64.5-17 28.5 0 49.5 12.5 52 42-13-2.5-27.5-4-42-4-74 0-111 34.5-111 85Zm81.5-8c0-13.5 10.5-25 36.5-25 14 0 24.5 1 35 2v3.5c0 25.5-17.5 42.5-44 42.5-19.5 0-27.5-11-27.5-23ZM708 2520.3h87.5v-109l68.5 109h103l-96.5-138.5 90-126.5H862l-66.5 106v-206H708v365ZM984 2387.8c0 78 58.5 140 145 140 35 0 67.5-7 102-22l-25.5-66.5c-21 8-44.5 13-70.5 13-32.5 0-53.5-16-62-40.5h163.5c2-9 3-24 3-34 0-72.5-49-130-124-130-81.5 0-131.5 60.5-131.5 140Zm130-70c23 0 37 18 40 46h-82.5c5-30 20-46 42.5-46ZM1405 2425.8c0 67 32.5 102 102.5 102 19 0 38.5-2 52-5.5l-4.5-77c-10.5 2.5-19 3.5-27 3.5-25 0-35.5-11-35.5-33.5v-85h62.5v-75h-62.5v-56H1405v56h-32.5v75h32.5v95.5ZM1594.5 2520.3h87.5v-131.5c0-37.5 19-56.5 46-56.5 22.5 0 39 14.5 39 50.5v137.5h87.5v-155.5c0-77-40.5-117-94-117-34 0-61.5 14-78.5 40.5v-133h-87.5v365ZM1899.5 2387.8c0 78 58.5 140 145 140 35 0 67.5-7 102-22l-25.5-66.5c-21 8-44.5 13-70.5 13-32.5 0-53.5-16-62-40.5H2152c2-9 3-24 3-34 0-72.5-49-130-124-130-81.5 0-131.5 60.5-131.5 140Zm130-70c23 0 37 18 40 46H1987c5-30 20-46 42.5-46ZM2320.5 2520.3h87.5v-190h57.5v-75H2408v-.5c0-22.5 11-32.5 34-32.5 9.5 0 19.5 1.5 28.5 3.5v-73c-12-3-26.5-5-44-5-70 0-106 35-106 102v5.5H2288v75h32.5v190ZM2485.5 2447.3c0 45.5 29 80.5 81.5 80.5 28.5 0 54-10.5 71.5-30v22.5h87.5v-155.5c0-77-50-117-121.5-117-41 0-78 11-105.5 23.5l23 70c19-9.5 43.5-17 64.5-17 28.5 0 49.5 12.5 52 42-13-2.5-27.5-4-42-4-74 0-111 34.5-111 85Zm81.5-8c0-13.5 10.5-25 36.5-25 14 0 24.5 1 35 2v3.5c0 25.5-17.5 42.5-44 42.5-19.5 0-27.5-11-27.5-23ZM2788.5 2520.3h87.5v-131.5c0-37.5 18-56.5 43.5-56.5 21 0 36.5 14.5 36.5 50.5v137.5h87.5v-131.5c0-37.5 18-56.5 43.5-56.5 21 0 36.5 14.5 36.5 50.5v137.5h87.5v-155.5c0-77-39.5-117-93-117-32.5 0-62.5 10.5-88.5 48.5a84.4 84.4 0 0 0-79-48.5c-31.5 0-58 14-74.5 40.5v-33h-87.5v265ZM3263.5 2175.8c0 28.5 21.5 50 53.5 50s54-21.5 54-50-22-50-54-50-53.5 21.5-53.5 50Zm10 344.5h87.5v-265h-87.5v265ZM3425.8 2155.3h87.5v365h-87.5zM3567 2593.3c14 6.5 31.5 9.5 53 9.5 44.5 0 85-16.5 115.5-95l98-252.5H3742l-52 159-50-159h-94l101 260.5c-9.5 12-21 16-39 16-13 0-25.5-3-36-7.5l-5 69ZM1129.3 3021.5c40 30 94.5 48 144.5 48 92 0 142.5-48.5 142.5-111.5 0-55-32.5-92-120-115.5-47.5-12.5-57.5-22.5-57.5-33 0-11 9.5-20.5 39.5-20.5 29.5 0 63 9.5 85 24l36.5-76.5c-35.5-20-74-32-119-32-84.5 0-134 52.5-134 109 0 52 30.5 91.5 118.5 115.5 41 11 51.5 21 51.5 34.5 0 13-11 22-39 22-40.5 0-81-18-107.5-41l-41 77ZM1461.3 3062h87.5v-131.5c0-37.5 19-56.5 46-56.5 22.5 0 39 14.5 39 50.5V3062h87.5v-155.5c0-77-40.5-117-94-117-34 0-61.5 14-78.5 40.5v-133h-87.5v365ZM1773.8 2717.5c0 28.5 21.5 50 53.5 50s54-21.5 54-50-22-50-54-50-53.5 21.5-53.5 50Zm10 344.5h87.5v-265h-87.5v265ZM1936.3 3062h87.5v-131.5c0-37.5 19-56.5 46-56.5 22.5 0 39 14.5 39 50.5V3062h87.5v-155.5c0-77-40.5-117-94-117-34 0-61.5 14-78.5 40.5v-33h-87.5v265ZM2241.3 2929.5c0 78 58.5 140 145 140 35 0 67.5-7 102-22l-25.5-66.5c-21 8-44.5 13-70.5 13-32.5 0-53.5-16-62-40.5h163.5c2-9 3-24 3-34 0-72.5-49-130-124-130-81.5 0-131.5 60.5-131.5 140Zm130-70c23 0 37 18 40 46h-82.5c5-30 20-46 42.5-46ZM2539.8 3017.5c0 28.5 21.5 52 53.5 52s53.5-23.5 53.5-52-21.5-52-53.5-52-53.5 23.5-53.5 52Z"/></g><g transform="translate(933.3) scale(8.33333)"><clipPath id="a"><path d="M0 0h231.2v454.9H0z"/></clipPath><g clip-path="url(#a)"><path d="M123.8 0c6.7 2.6 11.2-.2 13 1.2 5.8 5.6 8.9 17.4 12 25.1 7 17 10.1 20.6 17.5 37.4 5.2 12 24.7 44.7 27 49.3 5.7 11.7 12.4 22.5 15.6 35 2.7 10 8.8 18.6 12.9 27.7 2.2 5 2.7 7.4 4 12.9.3 1.5 1.4 3 2.2 4.4 2 3.5 1.9 6.2-3 6-10.8-.6-22 1.9-32.8 1.5-14.4-.5-28.8-.5-43.2-.9-14.5-.4-29-1-43.5-1.7-11.2-.5-23-.5-34.2-.7-9.7-.2-18.8-.6-28.4-.5-10.9 0-24 .2-34.9 0-6.5 0-8.3 1.3-5-5l25.3-50.3C47.2 104 61.4 81.7 80 44.2c4.7-9.5 9-18.6 12.4-28.7 1.2-3.6 4.9-8.3 6-12a5.2 5.2 0 0 1 3.8-2.7c4.4-.3 8.8.5 13.2.5.3-.7 8.1-.6 8.4-1.3m21.8 162.6v-.2c3.7 0 7.4-.5 11 0 10 0 22.1-.5 22.1-.5-6-10.3-17.2-33-22.8-45.1-7.4-20.5-11.4-21.3-20.7-42.2-1.3-4.9-12-17.2-13.7-21.9-.6-1.5 0 .1-1.4-1-.5-3.2-6.2 7.2-6.7 8-3.6 7-9.1 14.3-12.4 21.5-3.8 8-5.3 6.2-9.3 14.2-6.9 13.7-12.5 22.6-19.5 36.2-3.3 6.4-13.9 20.8-16.7 27.5-.4.7 8-.1 8.8 0 8.3 1.1 24.6 1.3 33 1.8 18.3 1.2 30 .7 48.3 1.7" fill="#ef7d00" fill-rule="nonzero"/><path d="M229.6 422.5c2.6 10 1.4 15.7 1 21.4.3 1.6.8 10.8-.8 10.4-10.8-.5-15.2.9-26 .5-14.3-.5-44-.3-58.4-.6-14.5-.4-29-1-43.4-1.6-11.2-.4-23-.3-34.1-.5-11.2-.2-21.4-.7-32.8-.3-10.2.3-20.3 0-30.5 0-6.3 0-4.2-1-4.6-5l1.3-33.4c1.5.7 58.7.4 59.4.5 8.4 1 24.6 1.2 33 1.7 18.2 1.1 47.5 1.3 48.2 1.3.6 0 22.5-.3 26 .2 56-1 60.6-3 60.6-3l1 8.4Z" fill="#c42c27" fill-rule="nonzero"/></g></g></svg>