<svg viewBox="0 0 2096 1480" xmlns="http://www.w3.org/2000/svg" xml:space="preserve" fill-rule="evenodd" clip-rule="evenodd" stroke-linejoin="round" stroke-miterlimit="2"><g fill-rule="nonzero"><path d="M124 895c7.5 0 13-6 13-13.7 0-7.6-5.5-13-13-13s-13.1 5.4-13.1 13c0 7.7 5.6 13.8 13 13.8Zm-23.5-55h10.7v25.9c3.4-4.8 9.1-7.8 15.5-7.8 11.6 0 21.1 10.3 21.1 23.2 0 13.2-9.8 24-24 24-14 0-23.3-10.1-23.3-25.9V840ZM163 865.2c0-15.6 10.5-26.3 25.4-26.3 15 0 25.5 10.7 25.5 26.3v39h-11v-38.5c0-10.1-6-16.3-14.5-16.3s-14.5 6.2-14.5 16.3v38.5h-11v-39ZM245.4 897c3.7 0 6.5-3 6.5-6.7s-2.8-6.6-6.5-6.6c-3.9 0-6.7 2.9-6.7 6.6 0 3.8 2.8 6.6 6.7 6.6ZM233 878l21.2-38.5h6l31.3 64.7h-12l-23.1-49.3-11.7 21.3c1.1-.3 2.4-.4 3.8-.4 6.5 0 12.7 6.3 12.7 14.2 0 8.5-6.8 15.3-16 15.3-9 0-15.6-7-15.6-15.3 0-4.3 1.2-8 3.4-12ZM307.9 874c4.2 0 7.5-3.3 7.5-8 0-4.6-3.3-7.7-7.5-7.7-4.3 0-7.6 3-7.6 7.7s3.3 8 7.6 8Zm-16.4-34h9.5v14.8c2.2-2.9 5.8-4.6 9.4-4.6 8.4 0 14.3 6.8 14.3 16s-7.1 16.7-17 16.7c-9.6 0-16.2-7.5-16.2-17.9v-25ZM136.7 994c6.7 0 12.1-5 12.1-12.5 0-8.1-5-13.2-12-13.2-7.1 0-12.2 5-12.2 13.2 0 7.5 5.4 12.6 12.1 12.6Zm-42.1 0h25.7c-4-3.3-6.4-8.7-6.4-14.8 0-11.9 9.9-21 22.3-21 13.8 0 23.6 10 23.6 23s-9.6 23-25.6 23H94.6V994ZM195.8 994c6.7 0 12-5 12-12.5 0-8.1-5-13.2-12-13.2-7.1 0-12.1 5-12.1 13.2 0 7.5 5.4 12.6 12 12.6Zm.5-35.9c12.4 0 22.3 9.2 22.3 21.1 0 6-2.4 11.5-6.4 14.9h25.7v10h-39.6c-16 0-25.6-10-25.6-22.8 0-13 9.8-23.2 23.6-23.2ZM271.7 959.2h34.6v10.1h-34.2c-9.5 0-14 5.8-14 12.4 0 6.6 4.7 12.4 14 12.4h7.6v10h-8c-15.7 0-24.6-10-24.6-22.4 0-12.5 8.9-22.5 24.6-22.5ZM330.9 963.3c4.2 0 7.5-2.9 7.5-7.4 0-4.8-3.1-7.7-7.5-7.7a7.5 7.5 0 0 0 0 15Zm0-24c9.3 0 15.8 6 15.8 14 0 4-1.6 7.3-4.1 9.6h15.6v9.2h-25.7c-11.7 0-18.4-7.3-18.4-16.3 0-9.2 7.5-16.5 16.8-16.5ZM389.5 995c7.1 0 12.1-5 12.1-13.1 0-7.5-5.4-12.6-12-12.6-6.8 0-12.2 5-12.2 12.6 0 8.2 5 13.2 12.1 13.2Zm2.6-35.8h39.6v10.1H406c4 3.4 6.4 8.8 6.4 14.9 0 11.9-10 21-22.3 21-13.9 0-23.7-10-23.7-23s9.7-23 25.7-23ZM139.3 1094l-15-35.6-15.3 35.7h30.3Zm-17.9-54.5h6l28.2 64.7H93.1l28.3-64.7ZM168.2 1040h4.8v9.2h-4.4c-5.3 0-8 3.2-8 6.8 0 3.7 2.6 7 8 7h21.8v9h-22.2c-11 0-17.3-7-17.3-16 0-8.9 6.3-16 17.3-16ZM186.8 1094H221c9.5 0 13.9-5.7 13.9-12.3 0-6.6-4.6-12.4-14-12.4h-7.5v-10h8c15.7 0 24.6 10 24.6 22.4 0 12.5-8.9 22.5-24.6 22.5h-34.6V1094ZM283.4 1059.3H318v10H284c-9.6 0-14 5.8-14 12.4 0 6.6 4.6 12.4 14 12.4h7.6v10h-8.1c-15.7 0-24.6-10-24.6-22.4 0-12.5 9-22.4 24.6-22.4ZM328.1 1082.7c0-15.1 9.2-24.6 23-24.6 13.9 0 23 9.5 23 24.6v11.4h17v10h-27.8v-21c0-10-4.7-14.4-12.2-14.4-7.4 0-12.2 4.5-12.2 14.5v21h-10.8v-21.5ZM423.3 1095.1c7 0 12-5 12-13.2 0-7.5-5.3-12.6-12-12.6s-12.1 5-12.1 12.6c0 8.2 5 13.2 12 13.2Zm2.5-35.8h39.6v10h-25.7c4 3.4 6.4 8.8 6.4 14.9 0 12-9.9 21-22.3 21-13.8 0-23.6-10-23.6-23s9.6-23 25.6-23ZM489.4 1040h10.4v9h-10c-4.7 0-7 2.6-7 6.3 0 3.9 2.6 6.4 7 6.4H500v20.5h-9.5v-11.8c-11.3-.1-17.2-6.7-17.2-15 0-8.5 6.4-15.4 16.2-15.4ZM499.9 1094h28.4v-54h11v64.2H500V1094ZM576.6 1040h7.3v9.2H577c-9 0-13.9 4.6-13.9 11.9 0 7.3 5 11.9 13.9 11.9h6.8v9.2h-7.3c-13.3 0-23-8-23-21.1 0-13.2 9.7-21.1 23-21.1ZM134.3 1186.8v-29.7l-25.8 15 25.8 14.7ZM94 1169.1l50.6-30.2v66.4L94.1 1175v-6ZM176.1 1140h4.9v9.2h-4.4c-5.3 0-8 3.2-8 6.8 0 3.7 2.6 7 8 7h21.8v9h-22.3c-11 0-17.2-7-17.2-16 0-8.9 6.2-16 17.2-16ZM231.2 1159.3h8.1v10h-7.6c-9.4 0-14 5.8-14 12.4 0 6.6 4.5 12.4 14 12.4h34.2v10h-34.7c-15.6 0-24.5-10-24.5-22.4 0-12.5 8.9-22.4 24.5-22.4ZM291.5 1197c3.6 0 6.4-3 6.4-6.7s-2.8-6.6-6.4-6.6c-4 0-6.8 2.9-6.8 6.6 0 3.8 2.8 6.6 6.8 6.6Zm-12.6-19 21.2-38.5h6l31.3 64.7h-12l-23.1-49.3-11.7 21.3c1.1-.3 2.4-.4 3.8-.4 6.5 0 12.7 6.3 12.7 14.2 0 8.5-6.7 15.3-16 15.3-9 0-15.6-6.9-15.6-15.3 0-4.3 1.2-8 3.4-12ZM339.8 1140h9.5v33.2h16.4v9h-26V1140ZM377.2 1140h11v54h28.4v10.2h-39.4V1140ZM426.7 1182.7c0-15.1 9.1-24.6 23-24.6 13.8 0 23 9.5 23 24.6v11.4h16.9v10h-27.7v-21c0-10-4.8-14.4-12.2-14.4-7.5 0-12.2 4.5-12.2 14.5v21h-10.8v-21.5ZM507.3 1174c4.3 0 7.6-3.3 7.6-8 0-4.6-3.3-7.7-7.6-7.7-4.2 0-7.5 3-7.5 7.7s3.3 8 7.5 8Zm-16.4-34h9.6v14.8c2.2-2.9 5.7-4.6 9.4-4.6 8.3 0 14.3 6.9 14.3 16 0 9.2-7.1 16.7-17 16.7-9.7 0-16.3-7.5-16.3-17.9v-25Z" fill="#231f20"/><path d="M449.5 671.6v-.6c8.8 0 17.8-1.2 26.3.2 24.5-.4 53.7-1.5 53.7-1.5-14.6-24.8-41.6-80-55.1-109.3-18-49.5-27.7-51.5-50.3-102.2-3-11.6-28.8-41.6-33.1-52.9-1.4-3.6-.2.3-3.4-2.2-1.1-8-15.1 17.3-16.2 19.4-8.7 16.8-22.2 34.5-30.1 51.7-9 19.6-12.7 15.2-22.4 34.4-16.7 33.2-30.2 54.8-47.3 87.9-8 15.5-33.7 50.4-40.5 66.4-.8 1.9 19.5-.2 21.4 0 20.2 2.8 59.6 3.2 80 4.5 44.2 3 72.6 1.7 117 4.2Zm-52.9-394c16.2 6.3 27-.3 31.6 3 14 13.6 21.3 42.2 28.9 60.9 16.7 41.1 24.6 49.7 42.4 90.4 12.7 29 59.8 108.2 65.2 119.4 13.9 28.5 30.2 54.6 38 84.6 6.4 24.3 21.3 45.3 31.1 67.3 5.4 12.1 6.6 17.8 9.6 31.1.9 3.9 3.6 7.3 5.5 10.9 4.7 8.5 4.6 15-7.3 14.3-26.2-1.4-53.3 4.7-79.5 3.7-34.8-1.2-69.6-1-104.4-2-35.2-1.1-70.4-2.8-105.5-4.3-27.1-1.2-55.7-1-82.8-1.6-23.5-.5-45.4-1.5-68.9-1.3-26.2.3-58 .6-84.3.2-15.8-.3-20.3 3-12.4-12.4L165.2 620c45.8-90.4 80.3-144.5 125.2-235.3 11.5-23.2 21.9-45 30.2-69.7 2.9-8.6 11.8-20.1 14.7-28.8 1-3 5.8-6.4 9-6.6 10.6-.9 21.4 1.2 32 1.2.7-1.8 19.6-1.4 20.3-3.2Z" fill="#2b93d1"/><path d="M652.7 1300.9c6.4 24.3 3.5 38.1 2.3 51.9.9 3.8 2.2 26-1.7 25.2-26-1.3-36.9 2-63 1.2-34.6-1.2-106.8-.7-141.5-1.5-35-1-70.1-2.4-105.1-3.9-27-1-55.6-.8-82.6-1.2-27-.4-51.8-1.6-79.4-.8-24.6.8-49.2.3-73.9.3-15.2 0-10-2.6-11-12.3-.2-2.5 3.1-81 3.1-81 3.5 1.7 142 1 144 1.3 20.1 2.6 59.4 3 79.7 4.2 44.2 2.7 115.2 3 116.7 3s54.5-.8 63 .6c135.5-2.5 146.8-7.4 146.8-7.4l2.6 20.4Z" fill="#ca342b"/><path d="M1469.6 895c11.2 0 19-9.7 19-23 0-13.1-7.8-22.7-19-22.7s-19 9.6-19 22.8c0 13.2 7.8 22.8 19 22.8Zm0-56.1c17.6 0 30.4 14.1 30.4 33.2 0 19-12.8 33.2-30.4 33.2-17.6 0-30.4-14.1-30.4-33.2 0-19 12.8-33.2 30.4-33.2ZM1580.4 836.1c4 0 7 3 7 6.7 0 3.8-3 6.7-7 6.7s-7-2.9-7-6.7c0-3.7 3-6.7 7-6.7Zm-65.7 30h-7.8v-9.6h7.8v-2.8c0-11.7 6.8-17.6 16.2-17.6 2.3 0 4.2.4 5.8 1v9.6c-1.4-.4-3-.7-4.4-.7-4.3 0-7 2.4-7 8.6v1.9h19.7v-2.8c0-11.7 6.7-17.6 16.2-17.6 2.3 0 4.2.4 5.8 1v9.6c-1.4-.4-3-.7-4.4-.7-4.3 0-7.1 2.4-7.1 8.6v1.9h30.3v47.7h-10.6v-38h-19.7v38H1545v-38h-19.8v38h-10.5v-38ZM1622.3 855.4c8.3 0 14.2 3.2 18.4 8l-8.7 6.4c-1.9-2.7-5.6-4.4-9.7-4.4-7.6 0-13.4 6.4-13.4 15 0 8.5 6 14.9 13.9 14.9 4.5 0 8.3-2.2 10.2-4.9l8.1 6.9c-4.1 4.7-10.4 8-18.8 8a24 24 0 0 1-24.2-25 24 24 0 0 1 24.2-24.9ZM1658.2 876h23.7c-.6-7.4-5-11.5-11.8-11.5-5.7 0-10.6 4.2-12 11.5Zm11.7-20.6c14.3 0 22.5 10.2 22.5 24.5 0 1.4-.1 2.5-.3 4H1658a13 13 0 0 0 13.6 11.6c3.6 0 8.7-1.9 11.3-4.9l7.2 6.7c-4.6 4.8-11.4 8-19.2 8-14 0-23.8-10.6-23.8-24.6 0-14.2 9.6-25.3 22.8-25.3ZM1442.4 956.5h10.5v7c2.1-4.3 7.5-8.1 13-8.1 5.8 0 11.1 3 14.2 8.9 3-5.8 9-8.9 15-8.9 8.9 0 17 6.6 17 20.3v28.5h-10.5v-27.3c0-8.6-4-11.8-8.6-11.8-5.8 0-10.5 4.6-10.5 14.5v24.6H1472v-27.3c0-8.6-4-11.8-8.6-11.8-5.8 0-10.5 4.6-10.5 14.5v24.6h-10.5v-47.7ZM1526.8 956.5h10.6v27.3c0 8.5 4.6 11.8 9.9 11.8 6 0 11.1-5.3 11.1-14.3v-24.8h10.6v47.7h-10.6v-7c-2.3 4.3-8 8-14.4 8-8.8 0-17.2-7-17.2-20.2v-28.5ZM1585.5 956.5h10.5v7c2.3-4.3 8-8.1 14.5-8.1 8.7 0 17.1 7 17.1 20.3v28.5h-10.5v-27.3c0-8.6-4.7-11.8-9.9-11.8-6 0-11.2 5.2-11.2 14.2v24.9h-10.5v-47.7ZM1643.2 956.5h10.6v47.7h-10.6v-47.7Zm5.2-20.4a6.7 6.7 0 1 1 0 13.4c-4 0-7-2.9-7-6.7 0-3.7 3-6.7 7-6.7ZM1690.3 955.4c8.3 0 14.3 3.2 18.4 8l-8.7 6.4c-1.9-2.7-5.6-4.4-9.7-4.4-7.6 0-13.3 6.4-13.3 15 0 8.5 6 14.9 13.8 14.9 4.5 0 8.3-2.2 10.2-4.9l8.1 6.9c-4 4.7-10.4 8-18.8 8a24 24 0 0 1-24.2-25 24 24 0 0 1 24.2-24.9ZM1719.2 956.5h10.6v47.7h-10.6v-47.7Zm5.2-20.4a6.7 6.7 0 1 1 0 13.4c-4 0-7-2.9-7-6.7 0-3.7 3-6.7 7-6.7ZM1768.9 995.6c7.2 0 12.4-6.5 12.4-15.3s-5.2-15.3-12.4-15.3c-7.5 0-12.7 6-12.7 15.3s5.2 15.3 12.7 15.3Zm-22.6-39.1h10.5v6.1a18 18 0 0 1 14.4-7.2c12 0 20.9 10.9 20.9 25 0 14-8.8 24.9-21 24.9a18 18 0 0 1-14.3-7.3v20h-10.5v-61.5ZM1818.3 996.3c6.8 0 12-5 12-11.2v-1c-3-.5-6.2-1-9.3-1-7 0-9.8 3.5-9.8 7 0 3.3 2.3 6.2 7.1 6.2Zm1.8-21c4 0 7 .5 10.2 1.4-.2-8.2-4-11.7-11-11.7-3.7 0-7.9 1.1-12 3.3l-3.3-8.4a36.8 36.8 0 0 1 17.4-4.5c11.6 0 19.5 7 19.5 19.5v29.3h-10.6v-5.8a17.6 17.6 0 0 1-14.1 6.9c-9.2 0-15.4-6.2-15.4-14.5 0-8.4 7.2-15.4 19.3-15.4ZM1856.3 937h10.4v67.2h-10.4zM1461.5 1095.6c7.5 0 12.7-6 12.7-15.3 0-9.2-5.2-15.3-12.7-15.3-7.2 0-12.4 6.5-12.4 15.3s5.2 15.3 12.4 15.3Zm-2.3-40.2a18 18 0 0 1 14.4 7.2v-25.4h10.5v67h-10.5v-6.2a18 18 0 0 1-14.4 7.3c-12.1 0-21-11-21-25s8.9-24.9 21-24.9ZM1505.4 1036.1c4.5 0 7.7 3.2 7.7 8.3 0 6.7-3.2 12.3-7.7 19h-7.1a53 53 0 0 0 5.2-12.8 7.3 7.3 0 0 1-5.7-7.1c0-4.1 3.2-7.4 7.6-7.4ZM1526.8 1037.2h10.6v26.4c2.2-4.4 8-8.2 14.4-8.2 8.7 0 17.2 7 17.2 20.3v28.5h-10.6v-27.3c0-8.6-4.6-11.8-9.9-11.8-6 0-11.1 5.2-11.1 14.2v24.9h-10.6v-67ZM1598.4 1096.3c6.8 0 12-5 12-11.2v-1c-3-.5-6.2-1-9.3-1-7 0-9.8 3.5-9.8 7 0 3.3 2.3 6.2 7.1 6.2Zm1.8-21c4 0 7 .5 10.2 1.4-.2-8.2-4-11.7-11-11.7-3.8 0-7.9 1.1-12 3.3l-3.3-8.4a36.8 36.8 0 0 1 17.4-4.5c11.6 0 19.5 7 19.5 19.5v29.3h-10.6v-5.8a17.6 17.6 0 0 1-14.1 6.9c-9.2 0-15.4-6.2-15.4-14.5 0-8.4 7.2-15.4 19.3-15.4ZM1659.2 1095.6c7.1 0 12.4-6.5 12.4-15.3s-5.3-15.3-12.4-15.3c-7.5 0-12.8 6-12.8 15.3s5.3 15.3 12.8 15.3Zm-22.7-58.4h10.6v25.4a18 18 0 0 1 14.4-7.2c12 0 20.9 11 20.9 25s-8.8 24.9-21 24.9a18 18 0 0 1-14.3-7.3v6.2h-10.6v-67ZM1694.7 1056.5h10.6v47.7h-10.6v-47.7Zm5.3-20.4c4 0 7 3 7 6.7 0 3.8-3 6.7-7 6.7s-7-2.9-7-6.7c0-3.7 3-6.7 7-6.7ZM1723.2 1066.1h-7.8v-9.6h7.8v-11.2h10.5v11.2h12.8v9.6h-12.8v21.2c0 5.9 2.7 8 7.7 8 1.3 0 3-.2 4.8-.6l.8 9.7c-2.4.5-4.6.9-7 .9-10 0-16.8-5.5-16.8-17V1066ZM1772.6 1096.3c6.7 0 12-5 12-11.2v-1c-3-.5-6.3-1-9.4-1-7 0-9.7 3.5-9.7 7 0 3.3 2.3 6.2 7 6.2Zm1.8-21c4 0 7 .5 10.2 1.4-.2-8.2-4-11.7-11-11.7-3.8 0-8 1.1-12 3.3l-3.3-8.4a36.7 36.7 0 0 1 17.4-4.5c11.5 0 19.4 7 19.4 19.5v29.3h-10.5v-5.8a17.6 17.6 0 0 1-14.1 6.9c-9.2 0-15.4-6.2-15.4-14.5 0-8.4 7.2-15.4 19.3-15.4ZM1812 1066.1h-7.7v-9.6h7.8v-11.2h10.5v11.2h12.8v9.6h-12.8v21.2c0 5.9 2.8 8 7.7 8 1.3 0 3-.2 4.8-.6l.8 9.7c-2.4.5-4.6.9-7 .9-10 0-16.8-5.5-16.8-17V1066ZM1847.6 1056.5h10.6v47.7h-10.6v-47.7Zm5.3-20.4c4 0 7 3 7 6.7 0 3.8-3 6.7-7 6.7s-7-2.9-7-6.7c0-3.7 3-6.7 7-6.7ZM1894.4 1095.5c7 0 13-5.7 13-15.2 0-9.3-6-15-13-15s-13 5.7-13 15c0 9.5 6 15.2 13 15.2Zm0-40.1c13.5 0 23.8 10.6 23.8 25 0 14.2-10.3 24.9-23.8 24.9s-23.8-10.7-23.8-25 10.3-24.9 23.8-24.9ZM1930.6 1056.5h10.5v7c2.3-4.3 8-8.1 14.5-8.1 8.7 0 17.2 7 17.2 20.3v28.5h-10.6v-27.3c0-8.6-4.7-11.8-9.9-11.8-6 0-11.2 5.2-11.2 14.2v24.9h-10.5v-47.7ZM1443.3 1140h11v29.8l24-29.8h13.3l-26.4 31 27.6 33.2h-14l-24.5-30.3v30.3h-11V1140ZM1515.4 1196.3c6.7 0 12-5 12-11.2v-1c-3-.5-6.3-1-9.4-1-7 0-9.7 3.5-9.7 7 0 3.3 2.3 6.2 7 6.2Zm1.8-21c4 0 7 .5 10.2 1.4-.2-8.2-4-11.7-11-11.7-3.8 0-8 1.1-12 3.3l-3.3-8.4a36.7 36.7 0 0 1 17.4-4.5c11.5 0 19.4 7 19.4 19.5v29.3h-10.5v-5.8a17.6 17.6 0 0 1-14.2 6.9c-9.1 0-15.4-6.2-15.4-14.5 0-8.4 7.3-15.4 19.4-15.4ZM1554.9 1166.1h-7.8v-9.6h7.8v-11.2h10.5v11.2h12.8v9.6h-12.8v21.2c0 5.9 2.8 8 7.7 8 1.3 0 3-.2 4.8-.6l.8 9.7c-2.4.5-4.6.9-7 .9-10 0-16.8-5.5-16.8-17V1166ZM1590.4 1156.5h10.6v47.7h-10.6v-47.7Zm5.3-20.4c4 0 7 3 7 6.7 0 3.8-3 6.7-7 6.7s-7-2.9-7-6.7c0-3.7 3-6.7 7-6.7ZM1610.6 1156.5h11.6l11.9 30.2 12.2-30.2h11.1l-20.4 48.1h-6l-20.4-48.1ZM1667 1156.5h10.6v47.7h-10.5v-47.7Zm5.3-20.4c4 0 7 3 7 6.7 0 3.8-3 6.7-7 6.7s-7-2.9-7-6.7c0-3.7 3-6.7 7-6.7ZM1694.1 1137.2h10.5v41l17-21.7h12.6L1715 1179l20.3 25.2H1722l-17.5-22.3v22.3h-10.5v-67Z" fill="#231f20"/><path d="M1791.8 671.6v-.6c8.8 0 17.8-1.2 26.4.2 24.4-.4 53.7-1.5 53.7-1.5-14.7-24.8-41.7-80-55.2-109.3-18-49.5-27.7-51.5-50.2-102.2-3-11.6-28.9-41.6-33.2-52.9-1.3-3.6-.2.3-3.3-2.2-1.2-8-15.2 17.3-16.3 19.4-8.6 16.8-22.1 34.5-30.1 51.7-9 19.6-12.7 15.2-22.4 34.4-16.7 33.2-30.2 54.8-47.3 87.9-8 15.5-33.6 50.4-40.5 66.4-.8 1.9 19.5-.2 21.4 0 20.2 2.8 59.6 3.2 80 4.5 44.3 3 72.7 1.7 117 4.2Zm-52.8-394c16.1 6.3 27-.3 31.5 3 14 13.6 21.3 42.2 29 60.9 16.7 41.1 24.5 49.7 42.3 90.4 12.7 29 59.8 108.2 65.2 119.4 14 28.5 30.2 54.6 38 84.6 6.4 24.3 21.4 45.3 31.1 67.3 5.4 12.1 6.6 17.8 9.7 31.1.8 3.9 3.5 7.3 5.5 10.9 4.7 8.5 4.5 15-7.4 14.3-26.1-1.4-53.3 4.7-79.4 3.7-34.8-1.2-69.7-1-104.5-2-35.2-1.1-70.3-2.8-105.5-4.3-27-1.2-55.7-1-82.8-1.6-23.5-.5-45.4-1.5-68.8-1.3-26.3.3-58.2.6-84.4.2-15.8-.3-20.3 3-12.4-12.4l61.5-121.7c45.7-90.4 80.2-144.5 125.2-235.3 11.4-23.2 21.8-45 30-69.7 3-8.6 11.9-20.1 14.8-28.8 1-3 5.8-6.4 9-6.6 10.7-.9 21.4 1.2 32 1.2.7-1.8 19.7-1.4 20.4-3.2Z" fill="#f5821f"/><path d="M1995.1 1300.9c6.4 24.3 3.5 38.1 2.3 51.9.9 3.8 2.3 26-1.7 25.2-26-1.3-36.9 2-63 1.2-34.6-1.2-106.8-.7-141.5-1.5-35-1-70-2.4-105.1-3.9-27-1-55.6-.8-82.6-1.2-27-.4-51.8-1.6-79.4-.8-24.6.8-49.2.3-73.9.3-15.1 0-10-2.6-11-12.3-.2-2.5 3.1-81 3.1-81 3.5 1.7 142.1 1 144 1.3 20.1 2.6 59.4 3 79.7 4.2 44.2 2.7 115.2 3 116.7 3s54.5-.8 63 .6c135.5-2.5 146.8-7.4 146.8-7.4l2.6 20.4Z" fill="#2b93d1"/><path d="M1120.6 496.6v-.6c8.8 0 17.8-1.2 26.4.2 24.4-.4 53.7-1.5 53.7-1.5-14.6-24.8-41.7-80-55.2-109.3-18-49.5-27.7-51.5-50.2-102.2-3-11.6-28.9-41.6-33.1-52.9-1.4-3.6-.3.3-3.4-2.2-1.2-8-15.2 17.3-16.2 19.4-8.7 16.8-22.2 34.5-30.2 51.7-9 19.6-12.6 15.2-22.3 34.4-16.7 33.2-30.3 54.8-47.3 87.9-8 15.5-33.7 50.4-40.6 66.4-.8 1.9 19.5-.2 21.4 0 20.3 2.8 59.6 3.2 80 4.5 44.3 3 72.7 1.7 117 4.2Zm-52.8-394c16.2 6.3 27-.3 31.5 3 14 13.6 21.3 42.2 29 60.9 16.7 41.1 24.5 49.7 42.3 90.4 12.8 29 59.8 108.2 65.3 119.4 13.9 28.5 30.2 54.6 38 84.6 6.4 24.3 21.3 45.3 31 67.3 5.5 12.1 6.7 17.8 9.7 31.1.9 3.9 3.5 7.3 5.5 10.9 4.7 8.5 4.5 15-7.4 14.3-26-1.4-53.3 4.7-79.4 3.7-34.8-1.3-69.7-1-104.5-2-35.2-1.1-70.3-2.8-105.5-4.3-27-1.2-55.7-1-82.8-1.6-23.4-.5-45.3-1.5-68.8-1.3-26.3.3-58.1.6-84.4.2-15.8-.3-20.2 3-12.4-12.4L836.4 445c45.8-90.4 80.3-144.5 125.2-235.3 11.4-23.2 21.8-45 30.1-69.7 3-8.7 11.8-20.1 14.7-28.8 1-3 5.8-6.4 9.1-6.6 10.6-.9 21.3 1.2 32 1.2.7-1.8 19.6-1.5 20.3-3.2Z" fill="#ca342b"/><path d="M1323.9 1125.9c6.4 24.3 3.5 38.1 2.3 51.9.9 3.8 2.2 26-1.8 25.2-26-1.3-36.8 2-62.9 1.2-34.7-1.2-106.8-.7-141.5-1.5-35-1-70.1-2.4-105.2-3.9-27-1-55.5-.8-82.6-1.2-26.9-.4-51.8-1.6-79.3-.8-24.6.8-49.3.3-74 .3-15 0-10-2.7-11-12.3-.2-2.5 3.2-81 3.2-81 3.5 1.7 142 1 144 1.3 20.1 2.6 59.4 2.9 79.7 4.2 44.1 2.7 115.2 3 116.7 3s54.5-.8 63 .6c135.4-2.5 146.8-7.4 146.8-7.4l2.6 20.4Z" fill="#f5821f"/><path d="M772.1 665h11v29.8l24-29.8h13.4L794 696l27.5 33.2h-13.9l-24.6-30.3v30.3h-11V665ZM844.2 721.3c6.8 0 12-5 12-11.2v-1c-3-.5-6.2-1-9.3-1-7 0-9.8 3.5-9.8 7 0 3.3 2.3 6.2 7 6.2Zm1.8-21c4 0 7 .5 10.2 1.4-.2-8.2-4-11.7-11-11.7-3.8 0-7.9 1.1-12 3.3l-3.3-8.4a36.7 36.7 0 0 1 17.4-4.5c11.6 0 19.4 7 19.4 19.5v29.3h-10.5v-5.8a17.6 17.6 0 0 1-14.1 6.9c-9.2 0-15.4-6.2-15.4-14.5 0-8.5 7.2-15.4 19.3-15.4ZM883.7 691.1h-7.8v-9.6h7.8v-11.2h10.5v11.2h12.9v9.6h-12.9v21.2c0 5.9 2.8 8 7.7 8 1.3 0 3-.2 4.8-.6l.8 9.7c-2.3.5-4.5.9-7 .9-10 0-16.8-5.5-16.8-17V691ZM919.3 681.5h10.5v47.7h-10.5v-47.7Zm5.2-20.4a6.7 6.7 0 1 1 0 13.4c-4 0-7-3-7-6.7s3-6.7 7-6.7ZM939.4 681.5h11.7l11.8 30.2 12.2-30.2h11.2l-20.5 48.1h-6l-20.4-48.1ZM995.9 681.5h10.5v47.7H996v-47.7Zm5.2-20.4c4 0 7 3 7 6.7 0 3.8-3 6.7-7 6.7s-7-3-7-6.7 3-6.7 7-6.7ZM1023 662.2h10.5v41l17-21.7h12.5l-19 22.5 20.2 25.2H1051l-17.5-22.3v22.3h-10.6v-67ZM772.1 764.5h6.5l23.2 33.6 23-33.6h6.5v64.7h-10.8v-39.8L802.9 814h-2.3L783 789.4v39.8H772v-64.7ZM847.8 781.5h10.5v27.3c0 8.5 4.7 11.8 10 11.8 6 0 11-5.3 11-14.3v-24.8H890v47.7h-10.5v-7c-2.3 4.3-8 8-14.5 8-8.7 0-17.1-7-17.1-20.2v-28.5ZM906.4 781.5H917v7c2.3-4.3 8-8.1 14.5-8.1 8.7 0 17.1 7 17.1 20.3v28.5h-10.5v-27.4c0-8.5-4.7-11.7-10-11.7-6 0-11.1 5.2-11.1 14.2v24.9h-10.6v-47.7ZM964.2 781.5h10.5v47.7h-10.5v-47.7Zm5.2-20.4c4 0 7 3 7 6.7 0 3.8-3 6.7-7 6.7s-7-3-7-6.7 3-6.7 7-6.7ZM1011.3 780.4c8.2 0 14.2 3.2 18.3 8l-8.7 6.4c-1.8-2.7-5.6-4.4-9.6-4.4-7.6 0-13.4 6.4-13.4 15 0 8.5 6 14.9 13.9 14.9 4.4 0 8.3-2.2 10.1-4.9l8.2 6.9c-4.1 4.7-10.5 8-18.8 8a24 24 0 0 1-24.2-25 24 24 0 0 1 24.2-24.9ZM1040.2 781.5h10.5v47.7h-10.5v-47.7Zm5.2-20.4c4 0 7 3 7 6.7 0 3.8-3 6.7-7 6.7s-7-3-7-6.7 3-6.7 7-6.7ZM1089.9 820.6c7.1 0 12.3-6.5 12.3-15.3S1097 790 1090 790c-7.6 0-12.8 6-12.8 15.3s5.2 15.3 12.8 15.3Zm-22.7-39.1h10.6v6.1a18 18 0 0 1 14.3-7.2c12.1 0 21 10.9 21 25 0 14-8.9 24.9-21 24.9a18 18 0 0 1-14.3-7.3v20h-10.6v-61.5ZM1139.3 821.3c6.7 0 12-5 12-11.2v-1c-3-.5-6.3-1-9.4-1-7 0-9.7 3.5-9.7 7 0 3.3 2.3 6.2 7 6.2Zm1.8-21c4 0 7 .5 10.2 1.4-.2-8.2-4-11.7-11-11.7-3.8 0-8 1.1-12 3.3l-3.3-8.4a36.8 36.8 0 0 1 17.4-4.5c11.5 0 19.4 7 19.4 19.5v29.3h-10.5v-5.8a17.6 17.6 0 0 1-14.1 6.9c-9.2 0-15.4-6.2-15.4-14.5 0-8.5 7.2-15.4 19.3-15.4ZM1177.5 762h10.4v67.2h-10.4zM772.1 865h11v26.6h28V865h11v64.2h-11v-27.5h-28v27.5h-11V865ZM859.2 920.5c7 0 13-5.7 13-15.2 0-9.3-6-15.1-13-15.1s-13 5.8-13 15.1c0 9.5 6 15.2 13 15.2Zm0-40.1c13.5 0 23.9 10.6 23.9 25 0 14.2-10.4 24.9-23.9 24.9-13.5 0-23.8-10.7-23.8-25s10.3-24.9 23.8-24.9ZM894.5 881.5h10.6v27.3c0 8.5 4.6 11.8 9.9 11.8 6 0 11.1-5.3 11.1-14.3v-24.8h10.6v47.7H926v-7c-2.2 4.3-8 8-14.4 8-8.8 0-17.2-7-17.2-20.2v-28.5ZM955 915.9c3.2 3 8.8 5.1 13.6 5.1 5.8 0 7.8-2.2 7.8-4.4 0-2.6-1.6-4.8-10.8-7.5-10.8-3.2-14.5-8-14.5-14.6 0-7.8 7-14.1 17.7-14.1 5.6 0 11.9 1.8 16.1 5l-5.3 7.5a20 20 0 0 0-11.7-3.4c-4.5 0-6.8 2.2-6.8 4.4 0 2.4 1.7 4.2 9.5 6.4 12 3.4 16.2 8.8 16.2 15.6 0 8-6.5 14.4-18.6 14.4-7.9 0-15.2-3-19.6-7.3l6.3-7.1ZM998.7 881.5h10.6v47.7h-10.6v-47.7Zm5.3-20.4c4 0 7 3 7 6.7 0 3.8-3 6.7-7 6.7s-7-3-7-6.7 3-6.7 7-6.7ZM1025.8 881.5h10.5v7c2.3-4.3 8-8.1 14.5-8.1 8.7 0 17.1 7 17.1 20.3v28.5h-10.5v-27.4c0-8.5-4.7-11.7-9.9-11.7-6 0-11.2 5.2-11.2 14.2v24.9h-10.5v-47.7ZM1102.1 916c7.3 0 12.3-5 12.3-13 0-7.8-5-13-12.3-13-6.8 0-11.9 5.6-11.9 13 0 7.6 5 13 12 13Zm-16 13.8c3 2.8 8.5 4.7 13.8 4.7 9.1 0 13.9-4.3 13.9-14.1v-1.1c-3.4 4-8.3 6.4-14 6.4-11.8 0-20.4-10-20.4-22.7 0-12.6 8.6-22.6 20.4-22.6a18 18 0 0 1 14 6.5v-5.4h10.5v39.1c0 15-8.4 23.4-24.4 23.4-6.3 0-13.7-1.9-19.1-6.5l5.3-7.7ZM783.1 1000.5v18.7h14c7.1 0 11.3-3.9 11.3-9.5 0-5-4.4-9.2-10.8-9.2h-14.5Zm0-25.5v16.9H796c5.7 0 9.8-4 9.8-8.6 0-4.8-3.9-8.3-10.3-8.3h-12.4Zm-11-10h24.4c12.2 0 20.4 7.4 20.4 17.3 0 5.5-3 10.3-7.7 13.2a17 17 0 0 1 10.6 15.4c0 10.1-8.5 18.3-21.3 18.3h-26.4V965ZM831.7 981.5h10.6v27.3c0 8.5 4.6 11.8 9.9 11.8 6 0 11.2-5.3 11.2-14.3v-24.8h10.5v47.7h-10.5v-7c-2.3 4.3-8 8-14.5 8-8.7 0-17.2-7-17.2-20.2v-28.5ZM890.4 981.5h10.5v8.8c2.4-4.9 8.5-9.9 15.4-9.9v10.8c-10.8.7-15.4 5.4-15.4 15.7v22.3h-10.5v-47.7ZM933.7 1001h23.7c-.6-7.4-5-11.5-11.8-11.5-5.7 0-10.6 4.2-12 11.5Zm11.7-20.6c14.3 0 22.5 10.2 22.5 24.5l-.3 4h-34.1a13 13 0 0 0 13.5 11.6c3.7 0 8.8-1.9 11.4-4.9l7.2 6.7c-4.6 4.8-11.4 8-19.2 8-14 0-23.8-10.6-23.8-24.6 0-14.2 9.6-25.3 22.8-25.3ZM994 1021.3c6.8 0 12-5 12-11.2v-1c-3-.5-6.2-1-9.3-1-7 0-9.7 3.5-9.7 7 0 3.3 2.3 6.2 7 6.2Zm1.9-21c4 0 7 .5 10.2 1.4-.2-8.2-4-11.7-11-11.7-3.8 0-8 1.1-12 3.3l-3.3-8.4a36.8 36.8 0 0 1 17.4-4.5c11.5 0 19.4 7 19.4 19.5v29.3h-10.5v-5.8a17.6 17.6 0 0 1-14.1 6.9c-9.2 0-15.4-6.2-15.4-14.5 0-8.5 7.2-15.4 19.3-15.4ZM1031.3 981.5h10.5v27.3c0 8.5 4.7 11.8 10 11.8 6 0 11.1-5.3 11.1-14.3v-24.8h10.6v47.7h-10.6v-7c-2.3 4.3-8 8-14.5 8-8.7 0-17.1-7-17.1-20.2v-28.5Z" fill="#231f20"/></g></svg>