<svg viewBox="0 0 10062 4139" xmlns="http://www.w3.org/2000/svg" xml:space="preserve" fill-rule="evenodd" clip-rule="evenodd" stroke-linejoin="round" stroke-miterlimit="2"><g fill="#b48e05" fill-rule="nonzero"><path d="m3734.5 2327.2-.7 1.5-.5 1.7c-2.6 8.9-7.8 13.6-19.1 23.5-6.3 5.5-13.4 11.7-21 20l-.8 1a240.5 240.5 0 0 0-25.2 39.7c-9.8 18.4-17.7 33-35.3 44.7-14.9 6-28.7 4.6-46 3-17.8-1.6-38-3.5-62 2.6l-2.4.6-11.6 5.7c-25.8 12.6-46.1 22.5-71.2 44l-1.2 1-1 1.2c-19.1 21.4-26.6 42.2-33.2 60.5-4.1 11.2-8 21.9-14.4 33a873.7 873.7 0 0 1-65.7 80.2l-1.5 1.9c-3.6 4.9-6.6 9.5-9.3 13.6a87.1 87.1 0 0 1-23 26.3c-11 7.5-22 7.2-40.6 6-16.4-1-36.8-2.4-58.7 5.8a117.5 117.5 0 0 0-43.6 25.8c-12 10.1-15.4 12-19.8 11.1l-1.4-.2c-7.6-1-11-4.5-18.4-13a83.8 83.8 0 0 0-27.3-22.6l-1.6-.7c-42-16.3-71.7-10.4-106.1-3.6l-11.7 2.2a156.5 156.5 0 0 0-37 9.3c-10 3.5-17.2 6-26.4 5.6l-2.5-.1-2.6.4c-7.6 1.3-14 1.5-20 1.1 41.2-28.4 74-76.1 68.9-127 35-20.7 46.3-54.4 38-110.1-7.9-96.3-95.5-437.5-169-552.5 3.8 1.6 8.3 5 13 10l17.5 18.4 6.7-24.5c4.2-15.3 6.5-40.3 4.6-59.8 9.8.1 18.4-.8 23.5-1.3l3-.3 16.8 2.7-1.5-18.2c-3.4-40.8-56.1-73.7-84.5-87 2.2-33.3 0-54.8-14.3-70.2-15.3-16.4-41.5-21-78.5-21.4-.8-5.6-2.8-11-7.3-15.4-7.8-7.6-18.8-8.9-39-7.8 4.6-22.6.5-45.8-8.8-57.3a19.1 19.1 0 0 0-10.9-7.4c-15.5-4.5-47.5 2-83.8 25.7-4.6-5.9-10.8-13.3-21-9l-10.2 4.7.2 1.2-6.1 3.5c-13.2 7.4-17.9 10-21.6 11-2.8-3-7.7-10.2-12.8-20.6 18.9-34.2 34.7-69.4 32.2-116 1.4-68.6-24.3-137.3-68.9-183.8-32.1-33.6-71.3-52.5-110.3-53.3h-.6c-98.3 2-185.6 112.8-187 237.2v.6c1 27 10.4 54.1 19.6 78.7-2.6-.1-4.9 0-6.6.5l-1.7.5-1.5.8c-7.5 4-17 24.3-22.6 42-38.4-18.7-47.1-18-54-15-4.5 2-7.8 5.8-9.1 10.5l-.4 1.5-.1 1.5c-.6 10.8-2.5 35.6-4 50.2-38.3-3-103.6-6.7-120.2 3l-10.7 6.3 4.7 11.5a210 210 0 0 0 39.5 60.7 88.2 88.2 0 0 0-8.5 18c-25-7-45.2-23.7-49.4-120.7v-.5l-2.7-36.3c-4.3-63.3-6.9-101.9-29-117.7-7.3-6.5-9.5-9-2.6-25.7 7.7-14.6 7.8-53.6.1-87-5.7-25-18.2-58.1-45.3-78.4-3.8-31.7-13.8-52.9-30.4-64.5-15-10.4-34.5-12.5-58.1-6.2-45.4 5.8-63.6 77.3-70.5 119.6l-.2 2c-.4 15.2-1.7 90.2 14.5 114.9 2.7 9.9-4 27.7-9.7 33-19 16.8-29.8 45.2-31 82.2v1c1 30.8-2.6 62.4-4.9 81.3-1 9-1.7 15.1-1.7 19 0 173.4 180.1 401.1 256.7 444l1.4.7c15.1 6.5 21.1 32 19 38l-.6 1.7c-41.5 118.1-72 210.7-86 326.4-21.6 130-35.6 260 8.2 332.9 14.7 27.9 37.5 34.5 54 39.4 17.8 5.1 23.1 6.7 23 25.4v1.3l.2 1.2c1 6.3 2.8 22.5 5 43.1 8.7 80.2 18.1 160.8 30.7 199.9-38.5 23-65.8 56-34.8 127.2 5.2 12 11.9 26.2 18.9 41.2 31.7 68 79.2 169.7 72.8 233a97.7 97.7 0 0 1-16 32l-1 1.3-.8 1.4c-22.3 40.7-54.5 66.6-74.8 71.1l-2.5.6-2.3 1a42 42 0 0 0-24.4 32.3l-.9 3.5s-3.7 4.1-22.3 7.8c-248.6 50-576-145.9-579.2-147.9l-1.8-1-2-.9c-5.7-2.3-20.9-17.6-30-26.8-20.6-20.7-38.4-38.7-57.2-42.2l-1.4-.3c-2.7-2.8-7-10.7-9.9-16-10.4-19.2-24.6-45.5-56.5-51.7l-2.1-.3c-25-2.6-32.6-8.5-45.1-22.4l-2-1.9c-8.1-7.2-18.1-9.6-28.7-12.1-25.5-6-64-15.3-100.8-99.8-17.5-47.1-32.5-80.6-47-113l-12.3-28c-.9-55.2 108.2-563 127.3-611.1l.9-2.8c4-15.5 6.6-33.8 9-51.6 2.7-19.7 8.2-59.7 16.6-68.7 5-1.1 11.7-1 18.8-1 17 0 40.3 0 60.4-16.8 28-20 32-46.1 35.4-69.2.8-5.7 1.7-11.6 3-17.7v-.1c12-26.4 11.5-32.2 1.6-66-4-13.4-9.3-31.7-16.3-60.2-15.4-64.5-10.9-124.1 13.1-172.5 14.9-29.5-1.7-47.8-10.6-57.7a66.1 66.1 0 0 1-11.8-16.2l-1.4-3-2.2-2.5c-14.8-16.6-21.9-57.5-16.6-66.8 46.5-7.4 169.1-49.6 203.4-80.8 55.3-50.2 151.3-151 173.5-262v-.5c16.6-91.8-22-204.7-36.4-247.2l-1.7-5c-4-18.7-13.7-40.7-23-62-6.1-13.9-11.9-27-15.1-37l-.6-1.6c-7.7-19.4-23.8-34.7-39.4-49.6-10.4-10-26.1-25-26.8-32.3.7-13.8 16.4-28.8 31.6-43.3 7.5-7.2 15.3-14.6 21.7-22.4 4.6-3.4 8.7-6.2 12.8-8.8 14.6-9.6 31.1-20.5 32-50.2 1.2-3.4 2.8-4.2 8.3-7 4.2-2 9.4-4.7 14.2-9l2.7-2.6 1.9-3.3c9.5-16.6 16.4-30.9 18.2-62.6 3.2-27.7-4.7-38.9-14.5-49.6-3.5-3.9-6.6-7.2-10-14.5l-1.7-4.9c6.9-8 12.4-18.7 11.2-38.6 1.2-17.4-3.8-28-9.7-35.6l.1-.2 1.2-2.6 1.5-8.6c1.2-7 2.3-13.2-.3-19.8-.2-2.5-.5-8.7-.4-22.5.8-7.4 1.2-12.9 1.5-17 3.9-2.8 8.4-6.8 14.1-12.7 32.9-31.3 29.6-62.5 21.2-91.6l-1-2.7c-8-18.9-12.2-26.2-16.6-34-3.4-6-6.9-12.2-13.2-25.5-1.1-5.4 1.4-17.8 3.9-29.7a738 738 0 0 0 3.4-17l1.4.3c9 1.9 21 4.4 37 3.3l15.5 1 6.6-16c.2-.6 6.3-14.8 15.6-15.2 10.7.2 16.4 2.5 22.5 21.2l.7 2c8.2 19.4 24.3 26.4 48 20.7 2.3-.6 5.9-1.4 6.6-1.4 0 0 .8.4 2 2l1.4 1.5 1.6 1.3c6.6 5.5 11.1 11 15.5 16.2 8.5 10.1 19 22.7 39.6 26.5 25 7.1 43.2-1.5 54-6.7l1.3-.6c1.1 3.1 2.8 6.3 5.4 9.3 9.2 11 23.7 13 33.8 13.7h2.8c33.3-1.8 47.4-23.7 55.8-36.8 1.1-1.8 2.6-4.1 4-6 10.1 7.9 27.3 28 38.2 41 26 30.6 43 49.5 61.2 54l.9.1c13.3 2.7 19.6 10.5 35.7 32.5l1.9 2.6c7.5 12.8 6.9 19.1 5 37.2-.4 4.8-1 10-1.3 16l-.2 1.7.2 1.8c1.7 21.6 6 28.6 19.5 41.3 5.3 5 12.5 11.8 23.8 25 26.5 31.5 53.7 27.2 71.7 24.3 6.8-1.1 12.7-2 17.8-1.1l2 .3h1.2c1.2 1.2 3.2 3.7 4.6 5.5 6.6 8.4 17.8 22.5 39.3 24.7l3 .3 3.1-.5a38 38 0 0 0 15.5-6.1c-2.6 12.5-6 24.8-9.5 30.6l-.9 1.5-.7 1.6c-1.8 4.3-2.3 4.7-4.6 6.2-11 7.6-18 16.7-19.7 38-2.8 19 5 30.2 9.6 37 3.4 5 5.4 8 5.4 18.8 0 11 1.5 18.3 2.6 23-2.2 2.9-6 7.4-11.6 13.7l-5 5.4-1 7.3c-3.7 28.3 11.5 42.2 19.7 49.7 1 .9 2.3 2 3.1 3l.4 1.5c.5 2.2-1.8 9.6-3.1 14a106 106 0 0 0-4.8 20.2c-6 15.3-14 40.7 4.5 65l1.5 2 1.9 1.7c5.1 4.4 8.4 8.6 11.3 12.3 3.7 4.7 9.2 11.7 18 14.7 15.8 8.9 29 8.1 39 7.6 6-.4 10.8-.6 17.3 1l1 .1c1 4.3 2.6 9.8 5.2 16l1.8 4.4 3.5 3.3c2.4 2.4 4.3 4.8 6.3 7.4 10.1 12.6 21.5 23.8 49.6 22l2.3-.2 6.2-1c5 18.3 17.9 38.1 65 39h1.8l1.7-.1c12.8-1.7 20.5-2 25.5-2.4 15.3-.8 22.5-3.3 32.2-16 2-2.6 4.6-6 9.2-11 21.3-19.9 28.7-35.2 35.2-48.8 3.5-7.1 6.7-13.9 12.3-21.8a311.3 311.3 0 0 1 28.3-30.1c15.2-14.9 28.4-27.7 34.8-42.7 8.9-20.8-.6-39.7-9-56.3a117 117 0 0 1-11.5-29.6 85.7 85.7 0 0 0 19-9.1l1.1-.8c5.4-4 15.3-10.7 20.2-12.3a25.8 25.8 0 0 0 19-22.3l.4-2.7.6-2.7-.1-2.8c-2.4-74 15-95 18.7-96.1 20.2 2.6 23.8 6 24 6.3 3.1 5.6-2.3 32.2-7 55.7l-.2 1c-3.9 24.8 17 62.4 79.5 143.5l8 10.3 1.8 2.3a16 16 0 0 1 1.6 1.9l-.3 3.9c-.5 4.6-1 10.9 0 18.6l.2 1.7.4 1.7c5 17.5 20.8 21.6 30 23l.5 4.9c2.3 20.7 5.7 51 31.2 61.7.5 2.2.8 5.2 1.1 7.5.8 6 1.7 13.1 4 20.4-.2 13.2 5.3 30.3 33.5 35.1 3.9 1.4 11 5.9 12 28.4-5 41.5 22.8 61.1 37.9 71.7a76 76 0 0 1 9.7 7.5l1.5 3.5 1.2 1.3a90.6 90.6 0 0 0-4.9 20.4c-2.8 27.3 19.1 48.4 36.7 65.4 5.9 5.7 14.7 14.1 16.7 18v.2c1.4 5.6-2.9 13-9.6 23.7-6.3 10-14 22.1-13.9 36.3l-1.2 3.5c-5.6 16-10 34.2 2.3 66 9.2 41.8 44.1 39.8 57.4 39 2.4 0 5.7-.3 7.8-.2 2.5 3 2.8 5.7 2.8 15a78 78 0 0 0 10 42.3c4.1 5.9 10.4 9.7 13.7 11.7 32.7 19.8 43.1 29.1 46.4 33.3 9.4 19.9 18 34.8 33 59.7-8.8 33.3-13.5 68.5 10.2 86.3 25.9 19.5 61.4-2.2 73-9.2 20.8-12.5 47.2-23.1 57-23.1h.3c6.3 6 11.9 17 17.3 27.7 8.5 16.7 18.1 35.6 35.3 47.4l2.5 1.7 2.7 1c35.9 13.5 73-20.3 100.3-45l9.7-8.7c10 13.5 21.9 38.2 25.2 54.3-5.2 38.8 4.6 72 29.2 98.8l2 2a87 87 0 0 1 17 18.7 88.3 88.3 0 0 0 31.7 29l1.3.7c8.7 4.5 23.6 8.6 61.1.8l7.8-1.7c2.5 1 4.9 2 7 2.7 7.3 2.7 23.8 8.9 29.2 14 4 7.2 10.6 30.4 15.1 46 3.5 12.2 7 24.7 10.9 36l2 13c5.5 33.7 9.8 60.3 33.4 87.5l1.2 1.3c16.5 16.4 16 28.2 10.2 41Zm24.2-74.3c-14.2-16.6-16.8-32.3-21.7-63l-2.5-15.3-.3-1.8-.6-1.8a832.8 832.8 0 0 1-10.8-35.7c-8.7-30.2-14.4-49.3-22.3-60.9l-1.3-1.7a80.1 80.1 0 0 0-26.5-19.3l-7-11c-9.3-14.9-23.9-11.4-35.1-8-5.9.7-10.4 2.3-14 4.3-14.7 3.4-31.9 6.3-38.5 5-9.4-5.7-11.4-8.5-15.5-14.3a133 133 0 0 0-23.6-26.4c-14.8-16.7-19.9-36.5-15.8-62.2l.5-3.6-.5-3.5c-3.4-24.2-26-80.6-55.5-99.4-19.7-13.9-39 3.6-59.4 22.1-25 22.7-41.6 34.7-49.3 35.7-6-6-11.4-16.7-16.7-27.1-7.8-15.3-16.7-32.7-31.5-44.7-28.2-22.7-81.3 3.3-110.5 20.9-8.3 5-14.1 7.6-17.8 9 0-6 1.2-17.2 6.8-37.7 1.3-4.6 4.7-16.8-3-26.3a616 616 0 0 1-35-63l-.7-1.6-.9-1.4c-10.6-16.3-36-33-61.8-48.7a48.6 48.6 0 0 1-1.3-13.8c0-12-.2-28.4-13.4-44.7-14-19.4-35.8-18.1-47.7-17.5-2.3.2-5.4.3-7.5.3a27 27 0 0 1-.7-2.8l-.4-2.3-.9-2.2c-7.7-19.2-5.5-25.7-2.3-34.6 1.1-3.4 2.5-7.3 3.5-11.8l1-4.6-.5-2.7c1-2.6 4.2-7.5 6.3-11 8.7-13.7 21.8-34.4 15.8-60-3.4-16-16.4-28.5-30-41.7-7.6-7.2-21.4-20.6-22.4-26.3.6-4.4 1.7-7.4 3-10.9 3.2-8.7 9-24.5-7-43-6-10.1-15.3-16.7-23.6-22.6-15.9-11.1-19.7-15.3-17.8-27.9l.3-2v-2.2c-1.5-50-26-68.3-46.5-74.8l-.7-1.7c-1.4-3.3-2.1-8.7-2.8-14-1.6-13-4.1-32.7-22.8-43l-3.3-1.8-2.1-.4c-1.9-4.5-3.1-15.6-4-23.2l-.8-7a36.5 36.5 0 0 0-7.2-25.4 37.2 37.2 0 0 0-22.6-13c.5-9.5-.7-22.7-13.6-36.8l-7.6-10c-57.8-74.9-68.8-99.6-70-107.7 8.8-43.4 13.9-69.9-1.2-91-12.9-18-35.1-23.2-57.2-26.1h-.5a49.5 49.5 0 0 0-39.4 13.4c-22 20.4-33.2 62.1-32.6 121.2-5 2.8-11.4 6.8-19.5 12.6-4.4 2.8-8.5 4-12.7 5.2-15.5 4.6-35.1 14.7-27.6 49.2a151 151 0 0 0 16.4 45.7c2.8 5.4 6.8 13.5 7.4 17-3.3 6.3-14.2 17-23.9 26.4a347.7 347.7 0 0 0-33 35.4l-.7.9a187 187 0 0 0-16.5 29c-6 12.3-10.2 21-25.4 35l-1.5 1.5c-4.9 5.4-8.2 9.5-10.5 12.5-5.3.3-13.5.8-25.9 2.3a47.5 47.5 0 0 1-18-3c0-.6-.3-1.5-.5-2.2-.9-3.8-2.2-9.6-6.2-15l-.4-.6-2.8-3.7c-12.3-16.8-22.6-18.1-39.8-14.7l-9.1 1.6c-2.7.1-4.1 0-4.8-.2l-3.4-4c-1.7-2.3-3.8-4.8-6.4-7.7-.8-2.5-1.4-5-2-7.4-2.7-10.6-8.1-32.4-38.4-33.5-12-2.5-21.4-2-28.4-1.6-8.2.5-9.9.6-14.4-2.3l-2-1.2-.3-.6c-3.3-4-8-10-15-16.6-2-3.6-.8-8.5 4-20.5l1.6-4v-4.5c.1-2.5 1.7-7.5 3-12 3.3-10.4 7.3-23.4 4.3-37.8a49.1 49.1 0 0 0-18-30 89 89 0 0 1-3.4-3.2c15-17.3 20.5-27.5 16-47-1-3.5-1.8-7.1-1.8-13.6a71.7 71.7 0 0 0-15.6-48.5l.1-.6.3-2.5.4-3.6c5-3.5 13.3-10 20-25.3 9.5-18.5 30.4-89 11-109.7l-1.2-1.2-1.4-1.1a40 40 0 0 0-30.2-9.8c-16.4 2-25.9 14.3-32.2 22.5l-.2.3-1.8-2.2c-6.6-8.4-17.5-22.3-38.6-23.6-12.3-1.9-23.2-.1-32 1.3-14.6 2.3-18.6 3-27.7-8a319.4 319.4 0 0 0-31.4-32.6c-.2-.9-.4-2.4-.6-5l1.1-12.5c2.1-20.9 4-40.5-12.2-67.5l-3.7-5.3c-17.2-23.5-32-43.9-63.2-50.8-7.3-4-25-24.8-36.7-38.6-30.6-36-50.5-58-73.2-60.2l-2.2-.2-2.2.2c-23.2 2.2-34.1 19.2-41.4 30.4-5.4 8.5-8.2 12.2-12.3 13.8a28.6 28.6 0 0 0-17.3-19.6c-21.3-10.6-39-2.2-49.6 2.8-9.3 4.4-13.4 6.1-21.1 3.7l-1.6-.5-1.7-.2c-3.5-.6-4.6-1.3-12.1-10.3-5-6-11-13.2-20.2-21a50 50 0 0 0-50.5-15.4c-7-17.1-23.3-43.7-64-44.2h-.7c-23.3.3-40.7 14-51.5 30.1-4.7-.5-9-1.3-13.2-2.2-13.7-2.8-39.4-8.1-54.6 23.3l-1.6 3.2-.5 3.5c-1.4 8.5-3 16.3-4.5 23.8-4.3 20.6-8 38.5-2 55.7l.9 2.4a381.8 381.8 0 0 0 15.6 30.4c4 6.9 7 12.4 13.6 27.8 6.3 22.1 4.6 29.9-8.9 42.6l-.9.9c-6.7 7-9.7 8.8-11.5 10-14.3 8.4-15.1 19.5-15.9 30.2-.3 4.2-.7 10-1.7 19l-.1 2.3c-.2 18.4.2 28.4 1.5 35l-.1.6-.6 3.2c-7 17.9-5.2 31.3 6 44.3l.9 1c0 .6.2 2 0 4.5l-.2 2 .1 2c.3 3.4.1 5.3 0 6.2l-.5.5c-13.4 13.8-15 28.7-5.5 53l.5 1.2a96.2 96.2 0 0 0 21.1 30.6c.1.9.3 3.5-.4 9.4l-.1 1.7c-1 20-4.2 28.1-9.3 37.4l-1.4.7a57.8 57.8 0 0 0-34 40.4l-.7 3v3.1c.1 4.7-.5 6.1-.5 6.1-1 1.4-6.2 4.8-10 7.3-5 3.3-11 7.3-18 12.7l-2.3 1.9-1.9 2.3c-4.6 6-11.6 12.7-19 19.8-20.4 19.4-45.8 43.6-46.4 77.5v.9c.6 27.1 21.4 47 41.6 66.3 11.6 11 23.7 22.6 27.8 32 4 12.3 10 26.2 16.5 40.8 8.2 18.7 17.4 39.8 20.3 54l3 9.2c12 35.5 48.9 143.5 34.6 223-14.3 71.4-72 157.3-158.6 236-26.1 23.6-147.2 66-182.5 69.4l-4 .4-3.5 1.6a52 52 0 0 0-28.9 38c-7.2 33.4 7.7 79.6 26.2 102.6 5.8 11.3 12.8 19 18 24.6l3.4 4-.1.4c-29.1 58.6-35 129.4-16.9 205 7.4 29.8 13.1 49.4 17 62.4 2.7 9.5 5.6 19.3 5.4 21.5-.2 1.3-2.6 6.5-4.7 11.1l-2.2 5-.6 2.5c-1.8 8.5-3 16.4-4 23.3-3.3 22.2-5 29.7-16.4 37.6l-2.2 1.7c-6.4 5.6-15 6-29.7 5.8-11.7 0-25 0-38.3 4.8l-2.2.8-2 1.2c-28.6 17.5-34.3 59.7-40.4 104.3a434.4 434.4 0 0 1-7.6 44.8c-11.7 31.8-47.5 189-75.7 323.5-61.6 292.9-55.3 310.1-52.3 318.4l.6 1.4c4.6 10.7 9.2 21 13.8 31.3 14.2 31.9 29 64.8 46 110.9l.5 1.2c46.4 107 103.3 120.5 133.9 127.8 2.8.7 6.5 1.5 8.6 2.2 18.3 19.6 36 31.1 71.9 35 8.7 2.2 14.7 12.4 22.9 27.4 8.7 16 20.4 37.6 44.3 40.6 6.9 3.2 22.7 19.2 32.4 29 16.2 16.3 30.4 30.5 44.4 36.7 25 15 277.2 162.2 514.8 162.2a491 491 0 0 0 97-9.2c42.9-8.6 55.2-25.1 60.3-47.3 12.9-4 26-11.2 38.9-20.9-14.1 48.4-18.7 74.5-7.2 88.8 20.7 24.7 64.1 38 114.5 38 26.9 0 55.8-3.8 84.2-11.8l.6-.2c66-21.6 127.2-64.4 160.2-100.1 67.7 67.2 169.2 110.8 237.5 100.8 58.6-6.7 92.6-33.8 104-82.8 8.3-33.9-6-68.2-19.9-101.5-10-24.2-19.6-47-19.1-66.7 5.5-88 37.7-147.8 63.5-196 18-33.5 33.5-62.4 35-91.8v-1.4c-1.8-37.8-15.3-60.9-25.2-77.8-10-17.3-14-24.8-8.6-38.5l3-10c23.2-74.9 52.8-179.5 51.3-248.1 24.6-2.8 42.8-11 56.3-25.3 15.4-16.3 24.2-39.8 27.2-73.7 12.5 2.2 26.3 3.4 44.3.7 17.2.3 30.2-4.3 41.8-8.4 8.6-3 16.7-5.9 27-6.9l2-.3 13.1-2.5c31.2-6.2 50.1-10 78.6 1 3.7 1.9 7 5.7 11.3 10.6 9.4 10.6 22.1 25 47.3 28.7 27.2 5 45.5-10.3 58.9-21.5 9-7.5 16.6-14 26.8-16.7l2.3-.8c12.5-4.8 25-4 39.5-3.1 20.4 1.3 45.9 3 71.2-14.6l.5-.4c18.3-13.5 26.7-26.3 34.9-38.8l7.3-10.8c27.7-31 43.7-49.6 68.6-84l1.3-2c9-15.2 14-29.4 18.6-41.9 6-16.5 10.7-29.6 22.9-43.7 19.8-16.8 35.8-24.6 59.7-36.3l7.1-3.4c15.1-3.4 29-2.1 43.6-.8 20.8 2 44.3 4.2 71-7.4l1.7-.8 1.5-1c29.5-18.4 42.3-42.3 53.6-63.4 6-11.2 11.7-21.8 19.8-31.7 5.5-6 11-11 16.5-15.6 12.9-11.3 26.2-22.9 33-44.5 10.2-23.4 14.5-57.9-20-92.6Z"/><path d="M145 2065.3c1.8 1060.3 866.7 1925.3 1928 1928 1058.5-2.8 1920.1-867.7 1920.2-1928 0-512.7-200-995-563-1358-362.6-362.7-844-562.3-1355.7-562.3h-3.1C1010.8 145 146.8 1006.1 145 2065.3Zm1928 2073c-280.2-.7-551.6-56-807-164.3a2069.2 2069.2 0 0 1-658.3-444.2A2068 2068 0 0 1 0 2065.4v-.2A2061.9 2061.9 0 0 1 607.8 604.7 2063.2 2063.2 0 0 1 1266.2 162c255-107.5 525.8-162 805-162h3.4c277.8 0 547.5 54.5 801.6 162a2059 2059 0 0 1 656.5 442.7 2060.7 2060.7 0 0 1 605.5 1460.6 2066.3 2066.3 0 0 1-605.4 1464.4 2065.2 2065.2 0 0 1-1459.7 608.6ZM5183.2 3460.1l-196.7-750.4h-193.7c-56 0-100.5 49.2-100.5 105.7v879.4h188v-795.3l199.6 795.3h203.8l199.5-795.3v795.3h188v-985.1h-297l-191 750.4ZM6212.4 3368c0 108.6-64.7 172.4-170.9 172.4-60.3 0-91.8-29-96.1-89.9 0-56.5 38.7-92.7 114.8-107.2a821.4 821.4 0 0 0 152.2-46.4v71Zm185.1-256.3c-4.3-142-110.5-211.5-320.1-211.5-175 0-274.1 69.5-297.1 211.5h190.9c10-36.2 47.4-53.6 114.8-53.6 79 0 119.2 21.7 123.4 65.2 0 42-41.5 66.6-123.4 76.8-192.3 18.8-324.4 68-328.7 252 0 169.5 126.4 255 308.6 240.5 65.8-4.6 123.4-17.5 171.4-39.7a110 110 0 0 0 86 41.2h73v-288.6l1.2-293.8ZM7149.6 2956H6920l-235.4 272.3V2804c0-50.8-41.6-94.2-91.8-94.2h-99v985.1h190.8v-279.6c0-20.3 10.1-33.3 30.2-37.7 24.4 0 48.8 21.8 73.2 65.2l135 252.1h229.6L6886.9 3240l262.7-284ZM7297.4 2709.7h-99v150.7h190.9v-56.5c1.4-62.3-28.7-94.2-91.9-94.2ZM7297.4 2928.4h-99v766.4h190.9v-673.6c0-62.3-30.1-92.8-91.9-92.8ZM7983.5 2996.5l-132 469.4-153.6-537.5h-211l267 766.4h202.3l268.5-766.4h-147.8c-47.4 0-79 23.2-93.4 68.1ZM8783 2996.5 8651 3466l-153.6-537.5h-211l267 766.4h202.3l268.5-766.4h-147.9c-47.4 0-79 23.2-93.3 68.1ZM9199.2 2928.4h-99v766.4h190.9v-673.6c0-62.3-30.2-92.8-91.9-92.8ZM9199.2 2709.7h-99v150.7h190.9v-56.5c1.4-62.3-28.7-94.2-91.9-94.2ZM10059 2956h-229.7L9594 3228.3V2804c0-50.8-41.6-94.2-91.8-94.2h-99v985.1h190.8v-279.6c0-20.3 10-33.3 30.2-37.7 24.4 0 48.8 21.8 73.2 65.2l134.9 252.1h229.7L9796.3 3240l262.7-284ZM6014.5 2520.9a210.8 210.8 0 0 0-210.8-210.8h-852.5V1055.8a213 213 0 0 0-213-213h-45.9V2569h1322.2v-48ZM6410.5 1336a234.6 234.6 0 0 1 234.4-234.3 234.5 234.5 0 0 1 .3 468.8l-234.7-.6V1336Zm727.5 0a493.8 493.8 0 0 0-484.8-493c-275.8-4.6-501.5 230.3-501.5 506.1V2569h48a210.8 210.8 0 0 0 210.8-210.8v-529.4l234.4.6c271.9 0 493.1-221.3 493.1-493.2ZM7881.9 1033.1a102.4 102.4 0 0 1 0 204.5 102.3 102.3 0 0 1 0-204.5Zm-102.6 777H8043l-422.3-450 36.4-38a290.7 290.7 0 0 0 224.8 105.8 292.5 292.5 0 0 0 67.8-577.2 292 292 0 0 0-285 89.3L7264 1358.1l361.7 385.5a210.7 210.7 0 0 0 153.6 66.5ZM8649.8 2207c0 77.9-63.4 141.3-141.3 141.3a141.4 141.4 0 0 1-141.3-141.3c0-77.9 63.4-141.3 141.3-141.3 78 0 141.3 63.4 141.3 141.3Zm974.4 362L8890.8 842.2h-198.1l-503.1 1191.3c-29 53-44.2 113-44.2 173.4 0 190 148.5 348.9 340.3 362l47.7-.1a363.9 363.9 0 0 0 338.2-361.9c0-185.6-140-339.1-322.2-360.4l242.7-574.5 496.3 1168.4a210.7 210.7 0 0 0 194 128.4h141.8ZM9743.2 1389.2a102.3 102.3 0 1 1 0 204.5 102.3 102.3 0 0 1 0-204.5Zm0 421a319 319 0 0 0 318.7-318.7 319 319 0 0 0-379-312.8V842.3h-258.3v649.2a319 319 0 0 0 318.6 318.6Z"/></g></svg>