<svg viewBox="0 0 363 363" xmlns="http://www.w3.org/2000/svg" xml:space="preserve" fill-rule="evenodd" clip-rule="evenodd" stroke-linejoin="round" stroke-miterlimit="2"><g transform="scale(8.33333)"><clipPath id="a"><path d="M0 0h43.5v43.5H0z"/></clipPath><g clip-path="url(#a)"><path d="M43.5 21.8C43.5 9.8 33.7 0 21.8 0a21.8 21.8 0 0 0-3.4 43.3V28h-5.6v-6.3h5.6V17c0-5.5 3.2-8.5 8.2-8.5 1.6 0 3.2.2 4.8.4v5.4h-2.7c-2.7 0-3.5 1.7-3.5 3.4v4h6l-1 6.3h-5v15.3a21.8 21.8 0 0 0 18.3-21.5" fill-rule="nonzero"/><path d="m30.2 28 1-6.2h-6v-4.1c0-1.7.8-3.4 3.5-3.4h2.7V8.9c-1.6-.2-3.2-.4-4.8-.4-5 0-8.2 3-8.2 8.5v4.8h-5.6V28h5.6v15.2c2.2.4 4.5.4 6.8 0V28h5Z" fill="#fff" fill-rule="nonzero"/></g></g></svg>