<svg viewBox="0 0 363 363" xmlns="http://www.w3.org/2000/svg" xml:space="preserve" fill-rule="evenodd" clip-rule="evenodd" stroke-linejoin="round" stroke-miterlimit="2"><g transform="scale(8.33333)"><clipPath id="a"><path d="M0 0h43.5v43.5H0z"/></clipPath><g clip-path="url(#a)"><path d="M43.5 21.8c0 11.9-9.8 21.7-21.7 21.7C9.8 43.5 0 33.7 0 21.8 0 9.8 9.8 0 21.8 0c11.9 0 21.7 9.8 21.7 21.8" fill-rule="nonzero"/><path d="M28.5 13.5c-.8 0-1.5.7-1.5 1.5 0 .9.7 1.5 1.5 1.5S30 16 30 15c0-.8-.7-1.5-1.5-1.5M21.9 15.4a6.3 6.3 0 0 0-6.3 6.3c0 3.5 2.8 6.3 6.3 6.3 3.4 0 6.2-2.8 6.2-6.3 0-3.4-2.8-6.3-6.2-6.3m0 10.4a4 4 0 0 1-4-4 4 4 0 0 1 4-4.1 4 4 0 0 1 4 4 4 4 0 0 1-4 4" fill="#fff" fill-rule="nonzero"/><path d="M26.9 34.5H16.7A7.7 7.7 0 0 1 9 26.8V16.6C9 12.4 12.5 9 16.7 9h10.2c4.2 0 7.6 3.4 7.6 7.6v10.2c0 4.2-3.4 7.7-7.6 7.7M16.7 11.4a5.3 5.3 0 0 0-5.3 5.2v10.2c0 3 2.4 5.3 5.3 5.3h10.2c2.8 0 5.2-2.4 5.2-5.3V16.6c0-2.9-2.4-5.2-5.3-5.2H16.8Z" fill="#fff" fill-rule="nonzero"/></g></g></svg>