<svg viewBox="0 0 363 363" xmlns="http://www.w3.org/2000/svg" xml:space="preserve" fill-rule="evenodd" clip-rule="evenodd" stroke-linejoin="round" stroke-miterlimit="2"><g transform="scale(8.33333)"><circle cx="21.8" cy="21.8" r="21.8"/><g transform="translate(11 11)"><clipPath id="a"><path d="M0 0h22.4v22.3H0z"/></clipPath><g clip-path="url(#a)"><path d="m12.4 9.4.8-1c1-.9 2.2-1.4 3.5-1.4a8 8 0 0 1 2.2.3c1.6.4 2.7 1.7 3 3.2.4 1.2.5 2.4.5 3.7V22c0 .3 0 .3-.3.3h-4c-.3 0-.4 0-.3-.3a1319.7 1319.7 0 0 0-.3-9.3 2 2 0 0 0-2.3-1.6 2.5 2.5 0 0 0-2.6 2.5V22c0 .2-.1.3-.3.3H8.2c-.2 0-.3 0-.3-.3V7.7c0-.2 0-.3.3-.3h3.9c.2 0 .3 0 .3.3v1.7M5 14.9v7c0 .3 0 .4-.3.4h-4c-.3 0-.3 0-.3-.3V7.7c0-.2 0-.3.2-.3h4.1c.3 0 .3.1.3.3V15M5.4 2.7a2.7 2.7 0 0 1-5.4 0C0 1.2 1.2 0 2.7 0c1.5 0 2.7 1.2 2.7 2.7" fill="#fefefe" fill-rule="nonzero"/></g></g></g></svg>