<svg viewBox="0 0 1652 2638" xmlns="http://www.w3.org/2000/svg" xml:space="preserve" fill-rule="evenodd" clip-rule="evenodd" stroke-linejoin="round" stroke-miterlimit="2"><g transform="scale(8.33333)"><clipPath id="a"><path d="M0 0h75.4v66.4H0z"/></clipPath><g clip-path="url(#a)"><path d="M40.5 0c2.3.9 3.7 0 4.4.4 1.9 1.9 2.9 5.8 4 8.3 2.2 5.6 3.3 6.8 5.7 12.4 1.7 4 8.2 14.8 9 16.3 1.8 3.9 4 7.5 5.1 11.6.9 3.3 3 6.2 4.3 9.2.6 1.3 1 2.8 1.3 4.2L75 64c.7 1.2.6 2-1 2-3.5-.2-7.3.6-10.8.5L48.9 66l-14.4-.6c-3.7-.2-7.6-.1-11.4-.2l-9.4-.2H2.2c-2.2 0-2.8.5-1.7-1.7L9 46.8C15.2 34.4 20 27.1 26 14.6c1.6-3 3-6.2 4.1-9.5.4-1.2 1.7-2.7 2-4 .3-.4.8-.7 1.3-.8 1.4-.1 3 .1 4.4.1 0-.2 2.7-.2 2.7-.4m7.3 53.8h3.6l7.3-.2c-2-3.4-5.7-11-7.5-15-2.5-6.7-3.8-7-6.9-14-.4-1.5-4-5.6-4.5-7.2-.2-.4 0 0-.5-.3-.1-1-2 2.4-2.2 2.7-1.2 2.3-3 4.7-4.1 7-1.3 2.7-1.8 2.1-3 4.8-2.4 4.5-4.2 7.5-6.5 12-1.1 2.1-4.6 6.9-5.6 9-.1.3 2.7 0 3 0 2.7.4 8 .5 10.9.7 6 .4 9.9.2 16 .5" fill="#fff" fill-rule="nonzero"/></g></g><g transform="translate(1022.6 1042.1) scale(8.33333)"><clipPath id="b"><path d="M0 0h75.4v66.4H0z"/></clipPath><g clip-path="url(#b)"><path d="M40.5 0c2.3.9 3.7 0 4.4.4 1.9 1.9 2.9 5.8 4 8.3 2.2 5.6 3.3 6.8 5.7 12.4 1.7 4 8.2 14.8 9 16.3 1.8 3.9 4 7.5 5.1 11.6.9 3.3 3 6.2 4.3 9.2.6 1.3 1 2.8 1.3 4.2L75 64c.7 1.2.6 2-1 2-3.5-.2-7.3.6-10.8.5L48.9 66l-14.4-.6c-3.7-.2-7.6-.1-11.4-.2l-9.4-.2H2.2c-2.2 0-2.8.5-1.7-1.7L9 46.8C15.2 34.4 20 27.1 26 14.6c1.6-3 3-6.2 4.1-9.5.4-1.2 1.7-2.7 2-4 .3-.4.8-.7 1.3-.8 1.4-.1 3 .1 4.4.1 0-.2 2.7-.2 2.7-.4m7.3 53.8h3.6l7.3-.2c-2-3.4-5.7-11-7.5-15-2.5-6.7-3.8-7-6.9-14-.4-1.5-4-5.6-4.5-7.2-.2-.4 0 0-.5-.3-.1-1-2 2.4-2.2 2.7-1.2 2.3-3 4.7-4.1 7-1.3 2.7-1.8 2.1-3 4.8-2.4 4.5-4.2 7.5-6.5 12-1.1 2.1-4.6 6.9-5.6 9-.1.3 2.7 0 3 0 2.7.4 8 .5 10.9.7 6 .4 9.9.2 16 .5" fill="#c42c27" fill-rule="nonzero"/></g></g><g transform="translate(72.6 2084.3) scale(8.33333)"><clipPath id="c"><path d="M0 0h75.4v66.4H0z"/></clipPath><g clip-path="url(#c)"><path d="M40.5 0c2.3.9 3.7 0 4.4.4 1.9 1.9 2.9 5.8 4 8.3 2.2 5.6 3.3 6.8 5.7 12.4 1.7 4 8.2 14.8 9 16.3 1.8 3.9 4 7.5 5.1 11.6.9 3.3 3 6.2 4.3 9.2.6 1.3 1 2.8 1.3 4.2L75 64c.7 1.2.6 2-1 2-3.5-.2-7.3.6-10.8.5L48.9 66l-14.4-.6c-3.7-.2-7.6-.1-11.4-.2l-9.4-.2H2.2c-2.2 0-2.8.5-1.7-1.7L9 46.8C15.2 34.4 20 27.1 26 14.6c1.6-3 3-6.2 4.1-9.5.4-1.2 1.7-2.7 2-4 .3-.4.8-.7 1.3-.8 1.4-.1 3 .1 4.4.1 0-.2 2.7-.2 2.7-.4m7.3 53.8h3.6l7.3-.2c-2-3.4-5.7-11-7.5-15-2.5-6.7-3.8-7-6.9-14-.4-1.5-4-5.6-4.5-7.2-.2-.4 0 0-.5-.3-.1-1-2 2.4-2.2 2.7-1.2 2.3-3 4.7-4.1 7-1.3 2.7-1.8 2.1-3 4.8-2.4 4.5-4.2 7.5-6.5 12-1.1 2.1-4.6 6.9-5.6 9-.1.3 2.7 0 3 0 2.7.4 8 .5 10.9.7 6 .4 9.9.2 16 .5" fill="#3192d0" fill-rule="nonzero"/></g></g></svg>