<svg viewBox="0 0 5067 5683" xmlns="http://www.w3.org/2000/svg" xml:space="preserve" fill-rule="evenodd" clip-rule="evenodd" stroke-linejoin="round" stroke-miterlimit="2"><g transform="scale(8.33333)"><clipPath id="a"><path d="M0 0h252.4v496.6H0z"/></clipPath><g clip-path="url(#a)"><path d="M135.2 0c7.3 2.8 12.2-.2 14.2 1.4 6.3 6 9.6 19 13 27.4 7.6 18.5 11.1 22.4 19.1 40.7 5.8 13.1 27 48.8 29.5 53.8 6.2 12.9 13.6 24.7 17.1 38.2 2.9 11 9.6 20.4 14 30.3 2.4 5.5 3 8 4.3 14 .4 1.8 1.6 3.3 2.5 5 2.1 3.8 2 6.7-3.3 6.4-11.8-.6-24 2.1-35.8 1.7-15.7-.6-31.4-.5-47.1-1-15.9-.4-31.7-1.2-47.5-1.9-12.3-.5-25.2-.4-37.4-.7-10.6-.2-20.4-.7-31-.6-11.8.1-26.2.3-38 .1-7.2-.1-9.2 1.4-5.6-5.6l27.7-54.9c20.6-40.7 36.2-65 56.4-106C92.5 37.9 97.2 28 101 16.9c1.3-4 5.3-9 6.6-13a5.7 5.7 0 0 1 4.1-3c4.8-.4 9.6.5 14.4.5.4-.8 8.9-.6 9.2-1.4M159 177.6v-.3c4 0 8-.5 11.9.1 11-.2 24.2-.7 24.2-.7-6.6-11.2-18.8-36-24.9-49.2-8-22.4-12.5-23.3-22.6-46.1-1.4-5.3-13-18.8-15-23.9-.6-1.6 0 .2-1.5-1-.5-3.5-6.8 7.8-7.3 8.8-3.9 7.6-10 15.5-13.6 23.3-4 8.8-5.7 6.8-10 15.5-7.6 15-13.7 24.7-21.4 39.6-3.6 7-15.1 22.7-18.2 30-.4.8 8.7-.1 9.6 0 9.1 1.2 26.9 1.4 36 2 20 1.3 32.8.8 52.8 1.9" fill="#3192d0" fill-rule="nonzero"/><path d="M250.6 461.2c3 11 1.6 17.2 1 23.4.5 1.8 1 11.8-.7 11.4-11.8-.6-16.6 1-28.4.5-15.6-.5-48.1-.2-63.8-.6-15.8-.4-31.6-1.1-47.4-1.8-12.2-.4-25-.3-37.2-.5-12.1-.2-23.4-.7-35.8-.4-11 .4-22.2.2-33.3.2-6.8 0-4.5-1.2-5-5.6l1.4-36.5c1.6.8 64 .5 65 .6 9 1.2 26.7 1.3 35.9 1.9 19.9 1.2 52 1.4 52.6 1.3.7 0 24.5-.3 28.4.3 61-1.1 66.1-3.3 66.1-3.3l1.2 9.1Z" fill="#c42c27" fill-rule="nonzero"/></g></g><g transform="translate(1657.4 2315.1) scale(8.33333)"><clipPath id="b"><path d="M0 0h409.1v404.1H0z"/></clipPath><g clip-path="url(#b)"><path d="M408.4 174.4c0-.8 0-1.5-.2-2.3l-2.3-9.3a16.9 16.9 0 0 0-2.8-5.8l-5-6.2c-.1-.2-.5-.2-.7-.4l-.9-.6-3.7-3.9-10.3-9.6-3.1-2.6c-2.8-2.2-5.7-4.2-8.4-6.6a21 21 0 0 0-4.8-3.3c-1.1-.6-2.2-1.1-3.2-1.8l-6.3-3.8c-.5-.3-1-.6-1.3-1a40.1 40.1 0 0 0-7.2-6L346 109c-.8-1-1.7-2-2.6-2.7a86.1 86.1 0 0 0-6.8-4.2c-3.2-1.7-6-4-8.5-6.7l-4.8-5.5c-2.2-2.5-4.5-4.8-6.4-7.5a139 139 0 0 0-13.8-15.9c-3.2-1.7-6-4-9.4-5.6a41.3 41.3 0 0 0-28.7-2.7 42 42 0 0 0-8.6 3 61.8 61.8 0 0 0-14.5 11.5 70.4 70.4 0 0 0-11 14.1c-1.1 2-2.1 4.2-3 6.3-1 2.3-1.6 4.6-2.5 7-.7 2-2 3.8-2.2 5.8-.5 4.4-1.7 8.6-2 13-.2 4.1.2 8.3 1.2 12.3.2 1.3 1 2.6 1 4a25 25 0 0 0 2.6 8.9c1.1 2.3 2.6 4.5 2.9 7.1.1.6.4 1 .7 1.5l5.6 8.7c-1.2.6-2.6.6-3.8 0-2-.9-4.2-1.6-6.4-2.2-3.4-1-6.8-1.8-10.2-2.6-2.7-.7-5.4-1.5-8.2-1.9-4.3-.7-8.7-1.2-13.1-1.5-3-.2-6.2.1-9.2.2H183a737.8 737.8 0 0 0 15.2-15.7c.9-.8 1.6-1.8 2.3-2.8l3-5.6c1.2-3 2.4-6.2 3.4-9.4.8-2.8 1-5.8 2-8.5.7-2.6 1-5.4.9-8l.1-2.3c.2-2.8.6-5.5.6-8.2 0-2.3-.4-4.6-.6-7-.3-2.7 0-5.6-1.2-8.4 0-.3-.2-.6-.1-1-.2-3.5-2.1-6.5-3.7-9.4-1.6-3.2-4.2-5.8-6.7-8.5-1.4-1.6-2.8-3.3-4-5-2.4-3.2-4.7-6.4-7.1-9.3a44.7 44.7 0 0 1-6-8.5c-.4-.7-.9-1.3-1.4-1.8l-3.7-4.6c-1.6-2-3.3-3.8-4.8-5.9-1.8-2.6-4-5-4.6-8.3-.4-1.7-1.2-3.3-1.7-5-.5-1.6-.7-3.2-1.1-4.8 0-.4-.2-.7-.5-1A12.4 12.4 0 0 0 156 0c-.8 0-1.5 0-2.2.3l-2.4.8a9.4 9.4 0 0 0-5.9 5.3c-.4 1-1 2-1.7 2.7a29 29 0 0 0-4.4 6.4 38 38 0 0 1-4 6.2c-3.2 3.5-5.8 7.5-10.2 9.9-2 1.1-3.7 2.9-5.6 4.3-.7.6-1.5 1-2.1 1.6-1.4 1.4-2.7 3-4.2 4.2A59.3 59.3 0 0 0 99.7 59c-.9 1.6-1.3 3.4-2 5.1-3.8 8.4-5.1 17.6-4 26.6.2 1.7.7 3.2 1 4.9l1 7.4c1.2 6.5 2.8 13 4.7 19.3.4 1.3.7 2.7 1.2 4l4.2 11 1 1.8 3 7v.7l-.7.2c-4 .8-8.2.1-12.1 1.4-2.4.8-5 .3-7.4 1.3-.8.4-1.7.6-2.5.8-3.9.9-7.6 2.2-11.1 4-2.2.9-4 2.4-6.2 3.3a18 18 0 0 0-6 4l-2 2-5.5-3.8-5-3.4c-2.7-2-4.5-4.8-6.1-7.8-2.4-4.2-6.2-5.9-10.3-4.6-3.5 1.2-5.8 4-7.2 7.4-1.2 3-2.2 6-4.2 8.6-1.2 1.5-2.3 3-3.3 4.7-1.6 2.8-3.6 5.4-5.1 8.3a36.7 36.7 0 0 0-3 8.9c-.5 2.5-.6 5.1-1 7.7-.5 4.8-.1 9.5.1 14.3l.2.8 1.1 6.9c.2 1.6.5 3.2 1 4.8.4 1 .2 2.2-.6 3-.4.3-.7.8-1 1.2-2.2 2.3-3.7 5-4.5 8.1-.2 1-.6 1.8-.7 2.8-.5 3.3-1 6.6-.4 10 .5 1.3 0 2.9-1 3.9a46.1 46.1 0 0 0-3 6.6c-1 2.7-2 5.5-2.3 8.3-.2 3.1.4 6.4.8 9.5.2 2 1 3.8.4 5.9v1.4c.6 2.9-.4 5.7-.3 8.5 0 .9-.4 1.8-.4 2.6v9c-.1 1.3-.2 2.5-.1 3.7.3 3.5.7 7 1.2 10.4.5 2 1 4.1 1.8 6.2.4.8.9 1.7 1.5 2.4l4.2 6.4v.4c-.7 4.9.4 9.8 3.1 13.9 2 3 3.4 6.2 4.2 9.7.4 2.4 1.1 4.7 2 7 1 2.2 1.6 4.7 1.5 7.1a17 17 0 0 1-1.3 5.5c-1.2 3-1.1 5.9-1 8.9 0 1.4.7 2.7 1.7 3.5.8.7 1.7 1.2 2.6 1.6l3.2 1.3c3.6 2 7.3 2 11.1 1a4 4 0 0 0 2.9-2.4l1.7-4c1-3 1.4-6-1.1-8.6a6.3 6.3 0 0 1-1.9-5.4c.3-2.2 1-4.3 1.3-6.4.2-1.4.8-2.7 1.6-3.8 1.2-1.7 3-3.2 3.2-5.5 0-.3.5-.5 1-1l.7 3.2.6 3.6c.4 1.9.6 3.8.6 5.7-.3 4.6-.9 9-.6 13.7.1 2.2.7 4.4 1.8 6.4 1 2 3 3.3 5.1 3.7 1.5.3 2.9.9 4.3 1.2 2.5.5 4.7 2.2 7.5 1.2 2-.7 4-1.5 5.5-3.3 1.5-2.2 2.6-4.7 3-7.3.6-2.8.6-5.6-1.2-8.1-1.4-2-3.4-3.4-5.8-4-2.4-.6-3-2-3.4-4l-.4-1.5c-.4-1-.2-2.3.6-3.2a26 26 0 0 0 3.5-8.2c.7-2.5 1.7-5 1.4-7.6l-1-7.3-.4-2.7c3.2-.8 4.9-3.1 6-5.9l.5-.9c1.3-2.2 2.2-4.7 2.5-7.3a70.1 70.1 0 0 0 .2-18.2c0-1 .4-1.4 1.4-1.7l6-1.8c2.4-.8 4-3 3.9-5.5-.3-4.3-.5-8.7-1-13a67 67 0 0 0-7.9-24.6c-1.7-3.1-4.3-5.4-6.7-8-2.5-2.5-4.8-5.2-7.2-7.8l2.8-3.6c1.5-2.5 2.7-5 4.3-7.5.9-1.1 1.5-2.6 1.7-4 0-1.6 1-2.2 2.2-2.5.8-.3 1.6-.4 2.4-.4a299.5 299.5 0 0 1 9.8-.2c1.6.1 3 1.2 3.5 2.7 1.4 3.6 3.1 7 2.7 11l.1 1.2c.8 3 1.2 6.2 1.2 9.3 0 .7.2 1.4.4 2 1 2.5.9 5.1 1 7.7.3 2.5.2 5 .2 7.6l.1 1.4c.2 1.7.5 3.5-.3 5.2-.2.7-.3 1.5-.2 2.2 0 1 .3 2 .2 3 0 3.3-.9 6.4-.4 9.7l-.2 1a25 25 0 0 0 .4 11.3c.5 1.8 1.4 3.4 1.2 5.4 0 .4.5 1 .9 1.5l2.4 2.5c1 1.1 2.2 2 3.7 2.4 2.3.8 4.8 1 7.2 1 .7 0 1.5 0 2.2.2a81 81 0 0 0-2.6 11.7c-.7 5.2-2 10.4-2.7 15.7a121 121 0 0 0-1.3 14.5c0 4.3.3 8.7.9 13a8 8 0 0 1-2 6.7c-1.2 1.4-2.2 3-2.9 4.8a42.7 42.7 0 0 0-2.5 11.8c-.3 3.7 1 7.4 3.5 10.1 2.3 2.8 5.6 3.9 8.7 5.3 2.4 1 5 .9 7.4 1 2 .2 4-.4 5.6-1.6 2-1.4 4-2.7 5.3-5 .1-.2.3-.4.6-.5 2.4-1.5 4.1-3.9 6-6 2-2 4-4.2 5.8-6.3 1.5-1.5 2.6-3.2 3.3-5.2l.7-3.6c.6-3.1.6-6.4-.1-9.5l-1-4.6c-.4-1.3-.2-2.7.4-4 1.1-2.5 2-5.1 2.5-7.9.5-3.5 1.8-7 .6-10.7v-.8c.2-1 .4-1.9.4-2.8 0-1 .6-1.4 1.6-1.4l1.2 1.7c2.3 2.3 4 5.1 5.1 8.2.6 1.7 1 3.4 1.7 5a13 13 0 0 1 .6 7.9c-.2 1.1-.4 2.3-.4 3.4 0 2.6-.6 5.2-.5 7.9 0 4.8 1.4 9.6 4.1 13.6 2 2.7 4.7 4.6 7.8 5.4.6.2 1.2 0 1.8.3a228.7 228.7 0 0 1 13 6c3.3 2.6 7.6 4 11.9 4 3.5 0 5.8-2 8.3-3.9l.3-.5a26 26 0 0 0 1.6-8.3 15 15 0 0 0-1.8-7l-2.1-4.7-1.3-2-4.7-7c-.8-1.2-1.4-2.6-2.3-3.8-2-2.7-3.2-5.9-3.6-9.2-.4-2.8-1-5.6-1.9-8.4a120.6 120.6 0 0 1-3.1-14.7v-12.1l.1-2.4 1-.2 6.3-.4c2.7-.3 5-1.4 6-4.2 1.3-3 2.2-6.3 2.6-9.6.5-4.3 1.2-8.5 1.6-12.8.3-3.4 0-6.7.3-10 .3-4.2.7-8.3.6-12.5 0-3-.3-6-.8-9-.3-1.8-.5-3.7-.6-5.6v-6.6l.5-12c0-2 .7-3.7 1.9-5.2 2.4-2.8 5.9-4.4 9.5-4.4l.8 3c1.5 4.7 3 9.5 4.7 14.2a48 48 0 0 0 2.4 6c1.2 2.5 2.7 4.8 4 7.1.6 1 1 1.7.5 2.9-.4 1-.7 2.3-.9 3.5-.8 4-2 7.8-3.8 11.4a39 39 0 0 0-1.9 5c-.9 2.8-.2 5.8 0 8.7 0 1.3 1 2.4 2.4 2.6 1.5.5 2.9 1.1 4.2 2 1 .4 1.6 1.3 2.4 1.8.7.4 1 1.1 1 1.9-.1 1.9-.2 3.8-.1 5.7 0 2.7.5 5.4.3 8-.5 5.4 1.5 10.3 2.4 15.5.5 2.7 1.2 5.3 1.8 8 .8 3.2 1.5 6.6 2.6 9.8 1 3 2.7 5.6 3.3 8.8l.5 1.3c1.2 3.5 2.8 6.9 3.1 10.6.1 1.4 0 2.8-.4 4.2-1 4-3.8 6.7-7.1 8.9-5.6 3.6-7.2 10.1-5.7 16.2 1 4 3.5 7.6 7 10 2 1.5 4.6 2.2 7.1 2.1 5.5-.1 11-.4 16.4-.7 1.9 0 3.8-.2 5.7-.5 1.3-.3 2.5-1 3.8-1.3 1.6-.4 3-1.3 3.8-2.6 2-2.6 2.3-5.7 3.3-8.7.4-1 .7-2.2.8-3.3.3-2.8.3-5.6.5-8.4 0-1.1.3-2.3.5-3.5h2.5c1.4.2 3 .2 4.4-.1l3-.4c2.7-.4 5.5 0 7.8-1.8a9.6 9.6 0 0 1 .7 7.2 3 3 0 0 1-1 1.3c-1.6 1.2-3.2 2.4-5 3.5a6.3 6.3 0 0 0-2.9 3.8c-.5 1.9-1 3.7-1.3 5.6-1.5 7.6.5 11.3 6.6 15.1 1 .7 2 1 3 1.3 2 .3 4 .4 6.1.5 1.7.2 3.3 0 4.8-.8l1.2-.3c1-.1 2.1-.3 3.1-.6 2.9-1 5.7-1.8 8.5-3a9.6 9.6 0 0 0 3.7-2.2c1-1 1.6-2.3 2.2-3.5 1-2 2-4 1.8-6.5l.3-2.4 2.6-12v-1c.2-4.9 0-9.8 1.1-14.6l.3-2c.2-1.8.3-3.5.6-5.1 0-.6.3-1 .8-1.3 2.3-1.1 3.4-3.3 5-5.2 1.4-1.8 1.8-4 3-6a33 33 0 0 0 3.5-9.8c.8-4.2 1.1-8.4.9-12.7v-5.5l.3-8.2v-8.6c0-1.2.5-2.3 1.5-3l7.8-4.5c2-1 4-2.2 4.9-4.2.8-1.7 2-2.1 3.7-2.3l2.4-.3 4.3-1.2c2.4-.6 4.9-.8 7.1-1.7 3.3-1.4 5.7-3.9 8.1-6.4 1.8-1.9 2.5-4.2 3.8-6.4 1.6-2.8 2.7-5.8 3.2-9 .4-3.6.5-7.2.4-10.8 0-3.2-.4-6.3-.5-9.4-.1-1.2 0-2.3.3-3.5 1.2-4.4 2.5-8.9 3.9-13.3l1.2-3.9c.8-4.3 2.7-8.4 3.6-12.7.6-3.2 1.8-6.3 2.3-9.5.4-2.8.3-5.7 1-8.5.7-2.6-.3-5.1-.4-7.7M16.6 223.2l6.8 10.9c-5 .3-8.7 3.2-12.6 6-.8-3.7 3-14.8 5.8-17M33.7 380c-1.8.5-3.7.3-5.4-.3-1.7-.8-3.7-1-5.2-2.2a3.2 3.2 0 0 1-1.3-3.7c.9-3.1 1.8-6.3 2.5-9.5v-2l-.3-2.4 1.4-.3 8.4 1.1-.4 7c-.1 1.3.2 2.7 1 3.9a121.7 121.7 0 0 1 2.5 5c-.4 1.6-1.6 3-3.1 3.4m29-9.5 3.7 1.6c1.5.5 2.4 1.9 2.3 3.4 0 3.9-2.2 6.4-5.8 6.6a8 8 0 0 1-2.6-.5c-1.5-.5-3-1.1-4.4-1.4-4-.8-5.1-1.8-5.2-5.8-.1-4 .2-8 .3-11.9 0-1 .6-1.4 1.6-1.4h5.2l1.4 5a6 6 0 0 0 3.4 4.4M61 348.9l-1 1.8c-.4 1.5-2 2.5-3.5 2.2h-2.7c-1.7 0-2.2-.3-2.7-2-.5-2-1.1-3.8-1.8-5.7-.2-1-.9-1.7-1.8-2l-.4-.2c-.7-.4-1.6-1.2-2.2-1a9 9 0 0 0-3.3 1.6c-2.2 1.6-2.8 4.2-3.6 6.7-.6 2.2-1.3 3-3.7 3-2.2 0-4.5-.4-6.7-.6l-5.2-.4c-.7-2.6-1.2-5.3-2.1-7.7-1-2.8-2.3-5.4-3.5-8l-2-4a5.8 5.8 0 0 1 0-4l2.3.1 3.4.8c1.9.4 3.8.8 5.8 1 3.8.4 7.6.6 11.4.8 4.4.3 8.9.3 13.3.6 2.8.3 5.7.8 8.5.4.9 0 1.2.4 1.5 1.1l1.8 4 .2.9c.5 3.7-.3 7.4-2 10.6m8.4-136.8a30.8 30.8 0 0 1-4 12.1 34.1 34.1 0 0 1-7.5 10c-1 1.4-1 2.8.5 3.7 1.5 1 2.8 2.2 3.8 3.7 2.4 3.2 5.3 5.8 8 8.8 1.7 1.8 3.2 3.8 4.5 6 1.1 2.1 2 4.4 2.7 6.7 1.6 4.5 2.2 9.2 3.1 13.7a96 96 0 0 1 1 9.7v1.9c0 1.1-.8 2-2 2.2-.7.3-1.4.7-2 1.2l-1.3.6-.3-2.4c.2-3.7-1.2-7-2-10.6l-1.1-5.8c-.2-1.3-.6-2.5-1-3.8-.2-1-1.1-1.6-2.1-1.5-1.3-.1-2.5.4-3.3 1.4-.2.4 0 1.2 0 1.8l1 5.6c.5 2.7.3 5.5 1.2 8.2.5 1.6.3 3.4.5 5l.6 4.9c.7 5 .1 9.8-.7 14.6-.5 3.1-1.5 6.1-2.3 9.1a11 11 0 0 1-.8 2.7c-1.5 2.6-4 3.5-6.7 3.7-2 0-4 0-6-.2l-7.9-.2h-4.5a92.4 92.4 0 0 1-27.2-4.5c-.9-.5-1.6-1-2.1-1.9a17.9 17.9 0 0 1-3-8c-.3-3.6-.7-7.2-.8-10.8-.2-3.8 0-7.6-.1-11.4l.4-.6 1.7 3.8c.8 1.8 1.9 3.6 3.2 5.2 1.7 2.3 3.1 4.8 4.7 7.2l1.5 1.9c2 2 3 2.2 5.5 1 1.3-.6 2.6-1.4 3.9-2.2l3-2a10 10 0 0 0 4.4-6c.6-1.8.1-3.8-1.3-5.1a9.2 9.2 0 0 1-2.3-4.3c-.8-2.8-1.4-5.8-2.1-8.7l-.1-.8c-.5-1.4-1.1-1.7-2.4-1a4 4 0 0 0-2 4.9l.3 1.8c-.2 3.5 1 6.5 2.5 9.6l1.8 3.1s0 .4-.2.5c-1.7 1.4-3.3 2.8-5.1 4a1.6 1.6 0 0 1-2.4-.5c-1.4-2-2.9-4-4.1-6-2-3-4.1-6.2-5.9-9.5-2-3.6-3.6-7.4-5.4-11-.5-1-.7-2.3-.5-3.4 0-1.2 0-2.5-.4-3.6a22.4 22.4 0 0 1 2.9-17c1.6-2.5 3.9-4.6 6.5-6 1-.7 2-1.1 3-1.7 3-2 6.6-2.9 10.1-2.8 1.3.1 2.5-.6 2.9-1.8 0-.4.2-.7.4-1 .8-1 .6-2.6-.4-3.5-2-2.3-4-4.5-5.8-6.9a46.2 46.2 0 0 1-8.3-18.2c-1-5.2-.8-10.3-.7-15.5l.3-3a41.2 41.2 0 0 1 8.7-20.2 30 30 0 0 0 7-10.8c.8-2.2 1.4-4.4 1.8-6.7.1-.8.7-1.5 1.5-1.7 1-.3 1.3.4 1.8 1 2.7 3.2 5.3 6.6 8.2 9.6 2.1 2.1 4.8 3.6 7.2 5.4 1.2.8 2.4 1.6 3.4 2.6 5.4 4.7 8 8.8 9.8 15.4.5 1.7.7 3.5 1.9 5l.1.6c.1 2.3 1 4.5 1 6.8 0 2.9.5 5.7.5 8.6a45 45 0 0 1-.7 7.3m74 134c-.9 2.7-1.7 5.5-2.3 8.3-.6 2.7.5 5.5.8 8.2.2 2.3.3 4.5.1 6.7-.1 1-.6 2-1.3 2.7a73.4 73.4 0 0 1-5.9 5.1c-2.1 1.8-4 3.8-5.6 6.1-1 1.4-2 2.7-3.2 3.8-2.3 2-5.2 3.3-8.3 3.3a14 14 0 0 1-7.7-1.7c-1.2-.6-2-1.7-2.2-3a11 11 0 0 1 4.8-11.7c1-.8 2.1-1.7 3-2.7a6 6 0 0 0 1.3-2.5c.6-2.9.7-5.8.2-8.7-.7-4.3-1.5-8.6-1.2-13 0-1.5-.3-2.9-.6-4.3l-.2-2.1h1.7l1.7.2c3-.2 6 .3 9 .3 3.6 0 7-.7 10.6-.7 2.1 0 4.2-.5 6.6-.8 0 2.3-.5 4.4-1.3 6.5m20.2-13.8c-.6-.2-1.2-.5-1.6-1a9.5 9.5 0 0 1-1.6-2.2 15 15 0 0 0-5.5-5.3c-4.8-3.2-8.6.8-9.4 4.6l-.3 3c.2 1.2-.7 2.2-1.8 2.4-1.5.4-3 .7-4.6.9-4.3.2-8.6.4-12.9.4-3.5 0-7-.3-10.5-.5.1-4.6.6-9.2 1.4-13.7l2-8.5c.3-2.3 1.8-4.1 2.8-6 .4-.5.9-.7 1.4-.7l8.6.2c4.5 0 9.1.3 13.6-.6a49.7 49.7 0 0 1 13.6.6c2.9.6 5.8.5 8.6.9 2.5.3 5 .8 7.4 1.2H180l1.3 19.6.1 2.4v.2c0 .7-.5 1.2-1.1 1.2l-4.7.5-8.1.6c-1.3.1-2.6 0-3.9-.2m24.5 30.6c2.3 1.9 4.3 4.2 5.8 6.8.8 1.6 2.2 2.9 2.9 4.5.5 1.6.9 3.4 1 5.1 0 .4-.4.9-.6 1.3l-1.6 2.6c-1.1 1.8-2.7 2.3-4.5 1.1a41.7 41.7 0 0 1-5.2-3.9c-2.7-2.4-6-3.6-9.3-5-1.9-.7-3.8-1.6-5.5-2.6a9.4 9.4 0 0 1-4.7-8c0-2-.3-4.2.6-6.2.1-.4.2-1 .1-1.4v-1.6a28.9 28.9 0 0 0-1.7-15.2l-.4-2.4h4.5c3 .7 5.8 0 8.6-.7l4.7-1c1.4 3.8 2.7 7.2 2.6 11.1-.1 2.7.2 5.5.3 8.2 0 1.4.2 2.8.5 4.2.4 1.2 1 2.3 2 3.1m28.7-178.6c-.4 2-.8 4-1 6a55.3 55.3 0 0 0-.5 9.6v7.8l.2 2.6c-1.8.8-3.5 1.5-5.3 2a15 15 0 0 0-7.5 4.8l-1.4 2.2-2.1 4.5c-1 2.2-1.6 4.5-1.8 6.9-.1 1.9-.4 3.8-.7 5.7-.6 3.3 0 6.6.1 10 .2 3.6.7 7.3 1 11 .7 4.6 1 9.3.7 14-.3 4.9-.2 9.7-.3 14.6 0 2.6-.5 5.2-1.4 7.6-.5 1.8-1 3.5-1.3 5.4a3.1 3.1 0 0 1-3.2 2.5c-3.7.3-7.3-.6-11-1.3a426.6 426.6 0 0 0-15.2-1.6c-3.8-.3-7.7-.8-11.6-.8-7 0-13.9 0-20.9.3-5.7.2-11.4.7-17.1 1-1 0-1.9.3-2.8.4-2.6-.2-5-1-7.1-2.4-.5-.3-.8-.7-1.1-1.2-.2-.2-.3-.7-.6-.8-1.9-.3-1.6-2-1.8-3.2-.8-3.4-.4-7-.4-10.4v-5.3c0-1.3.3-2.5.4-3.7v-4.7c0-3.1.1-6.3.6-9.4.5-2.9 0-5.8-.3-8.7l-.2-5.1-.4-5-.2-2.5c0-2.1-.3-4.2-1-6.2l-.4-2c-.3-1.6-.5-3.2-1-4.8l-2.4-6.3c-.8-1.8-1.9-3.5-3.2-5A7.3 7.3 0 0 0 88 211c-4.2.6-8.5 1-13 1.4l.3-2.4c.5-5.2.5-10.5 0-15.7-.3-2.6-.9-5.1-1.3-7.7a36.5 36.5 0 0 0-8-18.5l-.2-.8c1.4-1 2.9-2 4.4-2.8 1.9-1 3.9-1.6 5.8-2.5.9-.5 1.8-1 2.7-1.3 1-.4 2.2-.4 3.3-.7l7.2-1.5a173.2 173.2 0 0 1 14.7-2c2-.2 4.1-.1 6.2-.3 2.1-.1 4.3-.3 6.5-.7 2.3-.3 3-1.5 2.4-3.7a64 64 0 0 0-4.1-10.5l-1.5-3.6c-1.6-3.9-3.5-7.7-4.9-11.7-.9-3-1.5-6-2-9.2-.4-2.2-.4-4.5-1.2-6.6-.7-2-1.2-4.3-1.4-6.5-.4-3.5-1.1-6.9-1-10.4.2-3-.2-6.1-.2-9.2-.1-5.1.7-10.2 2.4-15l2.2-6.8c0-.3.2-.5.4-.8 1.7-3 3.4-6 5.3-9a31 31 0 0 1 3.6-4.6c2.3-2.5 4.7-4.9 7.3-7.1 1.9-1.5 3.9-2.8 6-3.9 1.8-.8 3.5-2 4.9-3.3 2.3-2.4 4.7-4.5 7-7 1-1.1 2-2.7 3-4a23 23 0 0 0 3.4-7.3c1-2.6 2.7-4.7 5-6.1.2-.2.6-.3 1-.3 1.3.6 3 1 3.5 2.8.7 2.2 1.5 4.3 2.4 6.5 1.8 5 4.6 9.8 8.2 13.8a83 83 0 0 1 9.1 11.3c1.1 1.5 2.3 3 3.6 4.4l4.5 5c4.4 4.4 7.7 9.6 11.5 14.4 2.9 3.6 4 7.8 5.1 12.2 1.1 4.3 1.2 8.8 1.4 13.2.3 2.9.4 5.7.2 8.6-.4 3.6-1.4 7-2.2 10.6-1 4.4-2.8 8.6-5.3 12.3-1.5 2.4-2.6 5.2-4 7.6-2 3.4-3.6 7-6.3 9.8-1.7 1.7-3.1 3.6-4.6 5.5-2 2.3-4.4 4.5-6.9 6.3l-2 1.8c-1.5 1.6-.9 3.7 1.2 4l9.6 1 8.6.3 6 .1 8.5.9c5.2.6 10.3 1.6 15.4 3.1l5.4 2.1a51 51 0 0 1-3.4 4.3c-3.6 3.8-6 8.5-7 13.6m27 141.8a131 131 0 0 1-3.3-11.1c-.5-2.4-.8-4.7-1-7.1l-.4-12 .3-.2.7 1.2 2 6.2 2.8 6.8a16 16 0 0 0 3.1 5.4c.3.3.5.7.6 1 .7 2.7 2.4 4.8 4 7l2.5 3.9 2.7 4.2.8 1.4 1 1.4 5.5 4.7.6.6c2.3.4 4 2 6 2.9l3.3.7v3.3c-2.9 1-6 1.5-9 1.4h-2c-2 .2-4 0-6-.6-1.7-.6-3.5-.8-5.3-1.4-.7-.2-1.2-.7-1.6-1.3a27 27 0 0 1-1.8-3.9c-1.8-4.8-3.7-9.6-5.4-14.5m31 36.7c-.2 2.9-.5 5.8-.5 8.7 0 3.8-.4 7.5-1.1 11.2-.6 3.6-5 7.2-8.7 6.7-3.1-.4-6.3-.6-9.5-.8l-9.2-.4a11 11 0 0 1-3.7-1 4 4 0 0 1-2.2-3.4v-5.3c0-.3.2-.6.4-.8.3-.4.7-.7 1.2-.9 2.8-1 5-3 7.3-4.7a17 17 0 0 0 5.8-7.3c.4-1.2.5-2.4.5-3.6 0-1.8-.3-3.7-.4-5.5 0-.3 0-.6.2-.9a94.8 94.8 0 0 0 20 1.8c.5 2.2 0 4.2-.1 6.2m23-2.7a21 21 0 0 1-9 1.3c-2.6.6-4.8-.1-7.4-1.5v-15.7l16-.3c.1 1.1 0 2.4.3 3.7l1.4 8.6.2 1.7c.1 1.5 0 1.6-1.4 2.2m32.3-5.3c-.4 3.3-1 6.5-1.3 9.7a94 94 0 0 1-4 21.3 24 24 0 0 1-3 5.4 6 6 0 0 1-4 2.3l-4.6.7c-1 .4-1.9.7-2.9.9-3 .2-6 .4-9 .4-.8-.2-1.6-.8-2.1-1.6-1.4-2-2-4.4-1.9-6.8a6 6 0 0 1 5-5.2c2-.3 3.5-1.7 5-2.9.4-.4.6-1 .6-1.5a31 31 0 0 0 0-4c-.2-3.3-.6-6.4-.9-9.6v-2.3l-.4-4.2v-1.7l.7-.1c4.3 1.2 8.5.3 12.7-.5a10 10 0 0 1 2-.3c2.5.3 5-.2 7.4-1.2h.7v1.2m4.5-36.7-1.3 14.5a68 68 0 0 1-1.4 10 2 2 0 0 1-1.7 1.8c-2.6.8-5.2 1.3-8 1.7-2.4.3-5 .7-7.4 1.4-3 .6-6.3.7-9.4.3v-4.7l7-3.4 1.8-1a58 58 0 0 0 10-7.6 29 29 0 0 0 5.6-7.6l4.9-9.5h.2c0 1.4-.1 2.7-.3 4.1m10.2-19.4-.1 15.2c0 3 0 6.2-.4 9.3-.6 3.2-1.4 6.3-2.4 9.3-.5 1.7-1.9 2.8-3.3 4.4l.5-4.3 1-12.7.9-9.5c.1-1.8.4-3.5.4-5.3 0-1.3 0-2.7-.3-4-.3-1 0-2 .6-2.6l2.4-3 .7.2v3m14.1-23.5c-.1 1.1-.9 2-2 2.3-1.8.8-3.5 1.7-5.2 2.7a63.7 63.7 0 0 0-5.1 4l-3.3 2.7-.8.7c-2.3 2.3-4.7 4.6-6.8 7.1-1.4 2-2.6 4-3.6 6.1l-4.8 10.2-1 2.7-.3 1c-.7 1.2-1.5 2.5-2.1 3.8-1.9 4-5 7.1-8.1 10-2.3 2-5.2 3.4-7.7 5.3-3.2 2.4-6.8 2.3-10.5 2.3l-4.5.2a90 90 0 0 1-10.2-.5c-4.5-.5-8.8-1.7-13-3.6a18.4 18.4 0 0 1-6.9-6.1 137 137 0 0 0-3.6-5 16.6 16.6 0 0 1-3-5.7c-.3-1-.8-1.8-1.5-2.5-2.5-2.6-3.8-6-5-9.2l-3-9-1.3-2.7-2.3-4.3c-1-1.2-1.9-2.4-2.9-3.4l-2.2-2.4c-2-2-4.2-3.7-6.6-5.1l-2.4-1.3L236 257l1.3.9 8.3 5.7 3.6 2.3c3.1 2.2 6.6 3.8 10.2 4.9l6.4 2L278 277c2.5.8 5.1 1 7.7.5l4-.6 1.7 3.3a5.6 5.6 0 0 0 4.3 3.1c3 .5 6 .8 9 1 1.7 0 3.5-.5 5.2-.4a25.2 25.2 0 0 0 7-.4c5.6.3 11-.4 16.3-2 1.6-.4 3.3-.5 4.8-.9l4.4-1c.3 0 .5-.2.8-.3 5.9-1 11-3.7 16-7.2.5 1 0 2.1 0 3.1m41.2-90.7-1 5.1c-.5 1.5-.8 3-1 4.4-.3 2.9-.6 5.7-2 8.3-.5 1-.7 2-1 3.1-1 3.2-2.2 6.3-3.1 9.5a88.4 88.4 0 0 0-3.3 17v4.3l1 8.8c.3 4-.3 7.9-1.8 11.6-.9 2.5-2.7 4.4-4 6.8-.9 1.7-2.6 2.5-4.4 3.1l-10.5 3.4-2 .2c-.2-1.7-.3-3.5-.2-5.2.2-1 1.2-2 1.9-2.8l3.2-3.7c1.7-1.9 1.6-4.2 1.5-6.4 0-1.4-1-1.8-2.2-1-.6.4-1.2 1-1.5 1.5a23 23 0 0 1-5.2 6.1l-1.6 1.5a39 39 0 0 1-15.6 9.8c-5.4 1.7-11 2.6-16.4 4.1a7731.4 7731.4 0 0 1-12.8 1.4l-1.4.1c-2 0-3.8.2-5.7.1-2.3-.1-4.5-.6-6.7-.7-1.9-.1-3.4-1.6-5.4-1.3-.5 0-1-.4-1.3-.9-.6-1.5-1.5-2.9-1-4.6l1.8-8.2c.3-1.6.7-3.2 1.2-4.7 1-2.9 2.4-5.7 3.8-8.4.6-1 1.4-1.8 2.5-2.3 2-1.2 4-2.5 6.5-2.8 4.5-.6 8.8-1.8 13.4-1.8a24 24 0 0 0 7.7-1.6c2.6-.8 4.7-2.6 6-5 .5-1 .2-2.6.1-3.9 0-.2-.7-.5-1-.4-.6.1-1.2.4-1.7 1-1.8 2.3-4.4 2.7-7 3l-15 1.4a2 2 0 0 0-.4.1c-4.2 1.4-8.6 2.5-12.7 5.6l.9-2c.7-1.3 1.6-2.6 2.2-4l4.5-9.7 1-2.9 1.4-4.2 2.2-8v-.7c0-.8.1-1.7-.9-2-.6-.3-1.8.5-2.1 1.5l-.9 3.3c-.3 1.4-.8 2.7-1.3 4L302 231c-1 2-2.2 3.7-3.5 6l-6.4-12c-1.8-3.5-2.4-7.3-3-11l-1.1-9.4v-.2c0-.8-.6-1.6-1.4-1.7-.6-.2-1.9 1-2 1.8v2c.5 5 .4 10.2 1.8 15 .8 3 2 5.8 3 8.7.2.4.3.9.3 1.4-2-2.5-5-3.1-7.8-4.3-5.3-2.1-10.4-4.7-15.2-7.7-2-1.4-4.3-2.5-5.7-4.5-1-1.3-2.6-1.3-4-2-1.3 1.3-1.3 1.3-.6 2.6l3.2 5c1 1.3 2.1 2.4 3.5 3.1l2.8 2 1.4 1 7.9 4a650 650 0 0 1 11.6 6.5c.7.4 1.3 1 1.8 1.6 1.4 2.1 2.6 4.3 2.7 7l.2 4.6v.4l-1.1 6.2-2 8.1c-.6 2-3.7 4-5.8 3.6l-2-.5-11.3-3.5c-3-1-5.7-2.3-8.7-3-2.6-.5-5.1-1.5-7.4-2.8-2.2-1.2-4.2-2.5-6.3-3.9-.5-.4-1-.8-1.3-1.3l-2.6-2.6c-3-2.4-5.6-5.3-7.8-8.5a58.6 58.6 0 0 1-9.5-28.4c-.3-3.3-1-6.6-1.3-9.9-.2-3.4 0-6.8 0-10.2-.1-3.5.4-7 1.3-10.3 1-4 3-7.4 5.9-10.2l1.3-1.6c1.3-1.6 3-2.8 5-3.4 1.7-.5 3.2-1.1 4.8-1.8 1.4-.6 2-2.1 1.6-3.5-.4-1.3-1-2.5-2-3.6-2.6-2.9-4.3-6.4-6.2-9.8a32.6 32.6 0 0 1-5-14l-1.6-7.7c-.6-2.9-.7-5.8-.5-8.8a59.6 59.6 0 0 1 10.7-30c.7-1.1 1.3-2.3 1.8-3.5 1.3-2.8 3-5.3 5.2-7.5.9-1 1.9-1.8 2.7-2.8 2-2.3 4.7-3.7 7.2-5.4l2.3-1.6c2.6-2.4 5.9-3.2 9.2-3.5l10.2-.6c4.5-.1 9 1 13 3 4.6 2.3 8.6 5.7 11.5 10 1.5 2 2.8 4.1 4.2 6.2l.7.8c4.7 5.7 10 10.9 15.3 16.2 2 2.1 4.3 4 6.8 5.5 2.5 1.4 4.8 3 7 5 2.2 1.9 4.5 3.7 7 5.3 2.4 1.8 5 3.5 7.4 5.4l5.8 4.4 7.4 5.2 3.4 2.6c3.5 2.8 7 5.5 10.5 8.5 2.4 2.1 4.6 4.5 7 6.9 2.1 2.2 4.2 4.6 6.4 6.7 2.2 2.1 3.8 4.7 4.8 7.6 1.1 3.3 2.1 6.6 2.9 10 .8 3.4 1.7 6.9 1 10.5" fill="#fff" fill-rule="nonzero"/><path d="M172.8 129.4c1.5-2.1 3.4-3.9 4-6.6l.8-1.4c1.4-2.8 2.4-5.7 3-8.8l1-8.3a61.7 61.7 0 0 0-1.9-27.1c-.6-2.5-1.5-5-2.2-7.4-.8-3.2-2-6.1-3.9-8.8a6 6 0 0 1-.6-1.2c-1-2.3-2.2-4.3-3.8-6-3.6-3.8-7-7.8-12-9.6-1.2-.5-2.4-.7-3.6-.8-1.2.1-2.3 0-3.5-.2-3-1-6 0-9.1-.4l-1 .2-1.8.4c-.8 0-1.7.3-2.5.6a49.6 49.6 0 0 0-10.8 6.9 78.9 78.9 0 0 0-7.6 8.3A24.4 24.4 0 0 0 115 68c-.5 3.5-.3 7.2-.5 10.8l.1 5 1 11.7c.4 3 1 6 1.7 8.8 1 3.9 2.2 7.6 3.4 11.4 1 2.8 1.8 5.7 3.7 8.2l3.7 4.6c2.2 2.6 4.2 5.5 7.3 7.4 2.2 1.5 4.8 2.6 7.5 3l3 .3c3.7.5 7.4.4 11 0 2.3-.3 4.5-1.4 6.7-2.4 1.6-.8 3.1-1.7 4.5-2.8 1.8-1.3 3.4-2.8 4.8-4.6M306.6 99.6c-1.7-4.5-4-8.7-6.8-12.6a15 15 0 0 0-2.4-2.6c-3-2.3-6.5-3.9-10.2-4.7-6.4-1.7-12.9-2.7-19.5-1-1.2.2-2.4 0-3.4.5-3 1.2-5.7 3-8 5.4-1.8 2-3.5 4.2-5.6 6-2.4 2.2-3.4 5.2-5.2 7.8a8.4 8.4 0 0 0-1.7 5v.2c-.8 2.2-1.3 4.5-1.7 6.8-.5 3.6-.7 7.3-1 11v.8c-.4 4.2.3 8.4 2 12.2 1 2.2 1.7 4.6 2.5 6.9 1.7 5 4.7 9.3 8.9 12.5a16 16 0 0 0 15.2 3.7c1.2-.4 2.6-.5 4-.8 3.4-.9 6.7-2 10-3.6 1.9-1.2 3.7-2.5 5.5-4 3.7-3 6.2-7.1 9-10.9a34.9 34.9 0 0 0 6.4-15c.3-2.2.8-4.3 1.6-6.3.5-.9.8-1.8 1-2.7l.3-8.4a19 19 0 0 0-1-6.2M378.5 153.8c-1.4-3.8-4-7.2-7.3-9.7-4.2-3-8.9-3.6-13.7-4.2h-.6c-1.8.3-3.7.4-5.6.9-2 .3-4 1.4-5.3 3a33.7 33.7 0 0 0-5.7 12.1l-1 3.2a13 13 0 0 0-1.1 5.6c0 5.6 1.6 11 4.4 16 1.6 2.8 4 4.9 6.3 7.2l1 .7c2.7 1.5 5.3 3 8.1 4.3 1.6.7 3.4 1 5.1 1 3.2 0 6.1-1.2 9-2.2l1-.8c.4-.5.7-1 1.2-1.4a12 12 0 0 0 3.8-6.3c.7-3.3 2-6.4 2-9.8 0-2.4.3-4.7.4-7l-.2-2.5c0-3.5-.6-6.8-1.8-10M65.2 197.8c0-3.8-1.5-7-2.7-10.4-.7-2.2-2.3-4-3.3-6-1.7-3.7-4.6-6.1-7.5-8.6a8.9 8.9 0 0 0-7-1.9 21 21 0 0 0-13.1 7.2 12 12 0 0 0-3.4 6c-.7 3.7-1.2 7.5-1.5 11.3-.7 7 1.6 13.1 4.6 19.1.6 1.2 1.8 2.2 2.2 3.4 1.1 2.9 3.2 5.2 5.8 6.7 2.4 1.4 4.8 3 7.8 2.7 1 0 1.8 0 2.7-.2a22 22 0 0 0 8.8-4l3-2.6a12 12 0 0 0 3.6-8.3c0-.7.3-1.3.4-2 .2-1.2.3-2.5.2-3.7-.1-2.9-.6-5.8-.6-8.7" fill="#fff" fill-rule="nonzero"/></g></g><g fill="#fff" fill-rule="nonzero"><path d="M544.1 2491.1h153.5c79.5 0 123.5-42 123.5-99.5 0-34-17.5-64-53-81 27.5-16 40.5-41.5 40.5-72.5 0-58-41.5-97-118.5-97h-146v350Zm134.5-269c22.5 0 35 10.5 35 29 0 18-12.5 29-35 29h-42v-58h42Zm6.5 125c25 0 38.5 12 38.5 31.5 0 20-13.5 31.5-38.5 31.5h-48.5v-63h48.5ZM858.6 2146.6c0 28.5 21.5 50 53.5 50s54-21.5 54-50-22-50-54-50-53.5 21.5-53.5 50Zm10 344.5h87.5v-265h-87.5v265ZM1003.6 2358.6c0 78 58.5 140 145 140 35 0 67.5-7 102-22l-25.5-66.5c-21 8-44.5 13-70.5 13-32.5 0-53.5-16-62-40.5h163.5c2-9 3-24 3-34 0-72.5-49-130-124-130-81.5 0-131.5 60.5-131.5 140Zm130-70c23 0 37 18 40 46h-82.5c5-30 20-46 42.5-46ZM1309.6 2491.1h87.5v-131.5c0-37.5 19-56.5 46-56.5 22.5 0 39 14.5 39 50.5v137.5h87.5v-155.5c0-77-40.5-117-94-117-34 0-61.5 14-78.5 40.5v-33h-87.5v265ZM505.3 2900.3c0 79.5 53 140 132.5 140 39 0 77.5-13.5 105-37l-45.5-64.5a76 76 0 0 1-47 19c-33 0-56-20.5-56-57.5 0-37.5 23-57.5 56-57.5 15.5 0 30.5 5.5 44 17l45.5-64a154.5 154.5 0 0 0-102-35.5c-80 0-132.5 60.5-132.5 140ZM782.8 3032.8h87.5v-131.5c0-37.5 19-56.5 46-56.5 22.5 0 39 14.5 39 50.5v137.5h87.5v-155.5c0-77-40.5-117-94-117-34 0-61.5 14-78.5 40.5v-133h-87.5v365ZM1087.8 2900.3c0 78 58.5 140 145 140 35 0 67.5-7 102-22l-25.5-66.5c-21 8-44.5 13-70.5 13-32.5 0-53.5-16-62-40.5h163.5c2-9 3-24 3-34 0-72.5-49-130-124-130-81.5 0-131.5 60.5-131.5 140Zm130-70c23 0 37 18 40 46h-82.5c5-30 20-46 42.5-46ZM1376.3 3032.8h222v-75h-103.5l100.5-140v-50h-212v75h93.5l-100.5 140v50ZM708.3 3549.5c26.5 18 73 32.5 111 32.5 76 0 118-39.5 118-88 0-41.5-25.5-69.5-101-92-22.5-6.5-29.5-13-29.5-19.5 0-5 6-11 22-11 17.5 0 48.5 8.5 73.5 22l23.5-66.5a223.8 223.8 0 0 0-99.5-25c-62.5 0-107 40.5-107 87.5 0 38 28.5 66.5 92.5 87.5 29 9.5 34 15.5 34 21.5s-6 11.5-24.5 11.5c-25 0-61.5-14-86-31l-27 70.5ZM965.8 3442c0 79.5 55 140 137.5 140s137.5-60.5 137.5-140-54.5-140-137.5-140-137.5 60.5-137.5 140Zm89 0c0-37.5 20-61.5 48.5-61.5s48.5 24 48.5 61.5c0 37-20 61.5-48.5 61.5s-48.5-24.5-48.5-61.5ZM1278.3 3230c0 28.5 21.5 50 53.5 50s54-21.5 54-50-22-50-54-50-53.5 21.5-53.5 50Zm10 344.5h87.5v-265h-87.5v265Z"/></g></svg>